<?xml version="1.0" encoding="UTF-8"?>
<svg xmlns="http://www.w3.org/2000/svg" xmlns:xlink="http://www.w3.org/1999/xlink" width="216pt" height="244pt" viewBox="0 0 216 244" version="1.1">
<g id="surface76">
<path style=" stroke:none;fill-rule:evenodd;fill:rgb(100%,100%,100%);fill-opacity:1;" d="M 63.292969 233.921875 L 59.519531 224.265625 L 44.472656 224.265625 L 40.675781 233.921875 L 36.035156 233.921875 L 49.511719 200.898438 L 54.597656 200.898438 L 67.863281 233.921875 Z M 53.941406 209.875 L 53.867188 209.683594 L 53.644531 209.121094 L 53.574219 208.929688 L 53.5 208.738281 L 53.429688 208.550781 L 53.355469 208.359375 L 53.214844 207.976562 L 53.148438 207.785156 L 53.085938 207.597656 L 53.023438 207.414062 L 52.964844 207.234375 L 52.847656 206.890625 L 52.789062 206.722656 L 52.734375 206.558594 L 52.679688 206.398438 L 52.628906 206.242188 L 52.578125 206.082031 L 52.527344 205.933594 L 52.480469 205.789062 L 52.433594 205.648438 L 52.390625 205.515625 L 52.34375 205.386719 L 52.300781 205.261719 L 52.261719 205.144531 L 52.222656 205.035156 L 52.183594 204.929688 L 52.152344 204.824219 L 52.125 204.730469 L 52.097656 204.640625 L 52.074219 204.5625 L 52.054688 204.496094 L 52.039062 204.433594 L 52.023438 204.378906 L 52.011719 204.335938 L 52.003906 204.300781 L 51.996094 204.273438 L 51.984375 204.300781 L 51.972656 204.335938 L 51.957031 204.378906 L 51.941406 204.433594 L 51.921875 204.496094 L 51.898438 204.5625 L 51.875 204.640625 L 51.847656 204.730469 L 51.816406 204.824219 L 51.785156 204.929688 L 51.75 205.039062 L 51.714844 205.152344 L 51.675781 205.273438 L 51.636719 205.398438 L 51.59375 205.53125 L 51.546875 205.667969 L 51.5 205.808594 L 51.449219 205.957031 L 51.394531 206.105469 L 51.339844 206.265625 L 51.289062 206.425781 L 51.234375 206.589844 L 51.117188 206.925781 L 51.058594 207.101562 L 50.996094 207.277344 L 50.933594 207.460938 L 50.867188 207.644531 L 50.800781 207.832031 L 50.730469 208.023438 L 50.53125 208.597656 L 50.464844 208.785156 L 50.398438 208.976562 L 50.328125 209.167969 L 50.257812 209.355469 L 50.191406 209.542969 L 50.121094 209.730469 L 50.050781 209.921875 L 45.832031 220.773438 L 58.183594 220.773438 Z M 53.941406 209.875 "/>
<path style=" stroke:none;fill-rule:evenodd;fill:rgb(100%,100%,100%);fill-opacity:1;" d="M 92.636719 221.125 L 92.632812 221.695312 L 92.617188 222.257812 L 92.59375 222.8125 L 92.5625 223.359375 L 92.519531 223.894531 L 92.46875 224.421875 L 92.40625 224.941406 L 92.335938 225.449219 L 92.257812 225.953125 L 92.167969 226.445312 L 92.066406 226.925781 L 91.957031 227.390625 L 91.828125 227.84375 L 91.691406 228.285156 L 91.542969 228.710938 L 91.378906 229.125 L 91.203125 229.523438 L 91.011719 229.910156 L 90.8125 230.28125 L 90.597656 230.640625 L 90.375 230.984375 L 90.136719 231.3125 L 89.886719 231.625 L 89.617188 231.925781 L 89.339844 232.210938 L 89.042969 232.476562 L 88.730469 232.730469 L 88.40625 232.972656 L 88.070312 233.195312 L 87.714844 233.40625 L 87.351562 233.589844 L 86.96875 233.757812 L 86.570312 233.90625 L 86.15625 234.035156 L 85.722656 234.144531 L 85.273438 234.230469 L 84.808594 234.300781 L 84.324219 234.347656 L 83.824219 234.378906 L 83.308594 234.390625 L 82.773438 234.378906 L 82.25 234.347656 L 81.738281 234.296875 L 81.242188 234.222656 L 80.761719 234.132812 L 80.289062 234.015625 L 79.835938 233.882812 L 79.394531 233.730469 L 78.964844 233.554688 L 78.550781 233.359375 L 78.152344 233.136719 L 77.773438 232.890625 L 77.414062 232.621094 L 77.074219 232.324219 L 76.753906 232 L 76.449219 231.648438 L 76.167969 231.269531 L 75.902344 230.867188 L 75.660156 230.4375 L 75.433594 229.984375 L 75.316406 229.984375 L 75.320312 229.996094 L 75.324219 230.015625 L 75.328125 230.039062 L 75.332031 230.074219 L 75.335938 230.113281 L 75.335938 230.207031 L 75.339844 230.265625 L 75.339844 230.40625 L 75.34375 230.480469 L 75.351562 230.644531 L 75.355469 230.734375 L 75.359375 230.828125 L 75.359375 231.019531 L 75.363281 231.125 L 75.363281 231.34375 L 75.367188 231.457031 L 75.375 231.691406 L 75.378906 231.8125 L 75.382812 231.941406 L 75.382812 232.199219 L 75.386719 232.332031 L 75.386719 232.609375 L 75.390625 232.742188 L 75.40625 233.289062 L 75.40625 233.558594 L 75.410156 233.695312 L 75.410156 243.882812 L 71.191406 243.882812 L 71.191406 213.378906 L 71.1875 213.199219 L 71.1875 212.84375 L 71.183594 212.667969 L 71.171875 212.152344 L 71.167969 211.984375 L 71.167969 211.652344 L 71.164062 211.492188 L 71.164062 211.179688 L 71.160156 211.027344 L 71.152344 210.738281 L 71.148438 210.597656 L 71.144531 210.460938 L 71.140625 210.320312 L 71.136719 210.1875 L 71.128906 210.054688 L 71.125 209.929688 L 71.121094 209.808594 L 71.117188 209.691406 L 71.113281 209.578125 L 71.105469 209.46875 L 71.101562 209.363281 L 71.09375 209.167969 L 71.089844 209.078125 L 71.082031 208.992188 L 71.078125 208.914062 L 71.070312 208.773438 L 71.066406 208.710938 L 71.058594 208.65625 L 71.054688 208.605469 L 71.050781 208.5625 L 75.128906 208.5625 L 75.132812 208.578125 L 75.136719 208.601562 L 75.144531 208.632812 L 75.148438 208.671875 L 75.152344 208.71875 L 75.15625 208.773438 L 75.160156 208.832031 L 75.167969 208.898438 L 75.171875 208.972656 L 75.175781 209.054688 L 75.183594 209.140625 L 75.195312 209.230469 L 75.203125 209.324219 L 75.210938 209.421875 L 75.21875 209.523438 L 75.222656 209.625 L 75.230469 209.734375 L 75.234375 209.847656 L 75.242188 209.964844 L 75.246094 210.085938 L 75.253906 210.203125 L 75.265625 210.320312 L 75.273438 210.445312 L 75.28125 210.566406 L 75.289062 210.695312 L 75.292969 210.820312 L 75.300781 210.949219 L 75.304688 211.082031 L 75.3125 211.214844 L 75.316406 211.351562 L 75.347656 211.882812 L 75.355469 212.140625 L 75.363281 212.390625 L 75.363281 212.640625 L 75.457031 212.640625 L 75.574219 212.398438 L 75.699219 212.167969 L 75.824219 211.941406 L 75.953125 211.722656 L 76.085938 211.515625 L 76.21875 211.3125 L 76.359375 211.117188 L 76.5 210.929688 L 76.644531 210.75 L 76.792969 210.578125 L 76.945312 210.40625 L 77.101562 210.242188 L 77.261719 210.085938 L 77.425781 209.933594 L 77.769531 209.652344 L 77.945312 209.523438 L 78.128906 209.398438 L 78.3125 209.28125 L 78.503906 209.171875 L 78.699219 209.0625 L 78.898438 208.957031 L 79.097656 208.863281 L 79.304688 208.773438 L 79.519531 208.691406 L 79.734375 208.613281 L 79.953125 208.542969 L 80.175781 208.480469 L 80.40625 208.421875 L 80.636719 208.375 L 80.878906 208.324219 L 81.125 208.28125 L 81.378906 208.242188 L 81.636719 208.207031 L 81.902344 208.179688 L 82.171875 208.15625 L 82.449219 208.136719 L 82.730469 208.125 L 83.015625 208.117188 L 83.308594 208.117188 L 83.824219 208.125 L 84.324219 208.152344 L 84.808594 208.199219 L 85.273438 208.265625 L 85.722656 208.351562 L 86.15625 208.453125 L 86.570312 208.574219 L 86.96875 208.714844 L 87.351562 208.875 L 87.714844 209.054688 L 88.070312 209.25 L 88.40625 209.457031 L 88.730469 209.683594 L 89.042969 209.925781 L 89.339844 210.183594 L 89.617188 210.457031 L 89.886719 210.746094 L 90.136719 211.046875 L 90.375 211.367188 L 90.597656 211.703125 L 90.8125 212.046875 L 91.011719 212.40625 L 91.203125 212.777344 L 91.378906 213.167969 L 91.542969 213.570312 L 91.691406 213.988281 L 91.828125 214.417969 L 91.957031 214.867188 L 92.066406 215.328125 L 92.167969 215.804688 L 92.257812 216.285156 L 92.335938 216.78125 L 92.40625 217.285156 L 92.46875 217.800781 L 92.519531 218.328125 L 92.5625 218.867188 L 92.59375 219.414062 L 92.617188 219.972656 L 92.632812 220.542969 Z M 88.207031 221.21875 L 88.203125 220.753906 L 88.195312 220.300781 L 88.183594 219.855469 L 88.160156 219.425781 L 88.136719 219.003906 L 88.105469 218.589844 L 88.070312 218.1875 L 88.027344 217.796875 L 87.980469 217.414062 L 87.925781 217.046875 L 87.867188 216.683594 L 87.796875 216.335938 L 87.71875 216 L 87.632812 215.671875 L 87.539062 215.359375 L 87.4375 215.054688 L 87.324219 214.761719 L 87.207031 214.480469 L 87.078125 214.210938 L 86.941406 213.953125 L 86.800781 213.703125 L 86.652344 213.46875 L 86.492188 213.246094 L 86.324219 213.035156 L 86.144531 212.839844 L 85.957031 212.652344 L 85.761719 212.476562 L 85.554688 212.316406 L 85.339844 212.167969 L 85.113281 212.03125 L 84.878906 211.90625 L 84.628906 211.792969 L 84.371094 211.695312 L 84.101562 211.609375 L 83.820312 211.539062 L 83.523438 211.476562 L 83.21875 211.433594 L 82.902344 211.398438 L 82.570312 211.378906 L 82.230469 211.375 L 81.949219 211.378906 L 81.675781 211.390625 L 81.402344 211.410156 L 81.132812 211.4375 L 80.867188 211.472656 L 80.601562 211.515625 L 80.34375 211.570312 L 80.085938 211.628906 L 79.832031 211.695312 L 79.582031 211.773438 L 79.335938 211.859375 L 79.097656 211.960938 L 78.863281 212.074219 L 78.636719 212.207031 L 78.417969 212.351562 L 78.199219 212.511719 L 77.992188 212.683594 L 77.789062 212.875 L 77.59375 213.078125 L 77.402344 213.296875 L 77.222656 213.527344 L 77.050781 213.78125 L 76.886719 214.046875 L 76.730469 214.332031 L 76.582031 214.636719 L 76.441406 214.957031 L 76.304688 215.296875 L 76.179688 215.648438 L 76.0625 216.023438 L 75.949219 216.414062 L 75.847656 216.816406 L 75.753906 217.246094 L 75.675781 217.699219 L 75.605469 218.179688 L 75.546875 218.679688 L 75.496094 219.203125 L 75.457031 219.753906 L 75.433594 220.328125 L 75.414062 220.925781 L 75.410156 221.546875 L 75.414062 222.074219 L 75.429688 222.589844 L 75.449219 223.089844 L 75.480469 223.570312 L 75.523438 224.035156 L 75.570312 224.484375 L 75.628906 224.917969 L 75.695312 225.332031 L 75.769531 225.730469 L 75.855469 226.117188 L 75.949219 226.480469 L 76.050781 226.828125 L 76.160156 227.164062 L 76.277344 227.484375 L 76.402344 227.792969 L 76.535156 228.085938 L 76.675781 228.363281 L 76.824219 228.628906 L 76.980469 228.878906 L 77.144531 229.117188 L 77.320312 229.339844 L 77.507812 229.550781 L 77.699219 229.746094 L 77.902344 229.933594 L 78.113281 230.105469 L 78.328125 230.265625 L 78.554688 230.414062 L 78.785156 230.546875 L 79.027344 230.671875 L 79.277344 230.78125 L 79.535156 230.871094 L 79.796875 230.957031 L 80.070312 231.03125 L 80.351562 231.09375 L 80.636719 231.148438 L 80.929688 231.191406 L 81.234375 231.226562 L 81.542969 231.25 L 81.859375 231.265625 L 82.183594 231.273438 L 82.527344 231.265625 L 82.863281 231.246094 L 83.183594 231.210938 L 83.492188 231.164062 L 83.789062 231.101562 L 84.074219 231.027344 L 84.347656 230.9375 L 84.605469 230.835938 L 84.855469 230.722656 L 85.089844 230.59375 L 85.320312 230.449219 L 85.539062 230.296875 L 85.75 230.128906 L 85.949219 229.949219 L 86.140625 229.761719 L 86.320312 229.558594 L 86.488281 229.339844 L 86.648438 229.113281 L 86.800781 228.875 L 86.941406 228.625 L 87.078125 228.359375 L 87.207031 228.085938 L 87.324219 227.800781 L 87.4375 227.5 L 87.539062 227.195312 L 87.632812 226.875 L 87.71875 226.542969 L 87.796875 226.199219 L 87.867188 225.847656 L 87.925781 225.484375 L 87.980469 225.101562 L 88.027344 224.710938 L 88.070312 224.3125 L 88.105469 223.898438 L 88.136719 223.480469 L 88.160156 223.046875 L 88.183594 222.605469 L 88.195312 222.152344 L 88.203125 221.691406 Z M 88.207031 221.21875 "/>
<path style=" stroke:none;fill-rule:evenodd;fill:rgb(100%,100%,100%);fill-opacity:1;" d="M 119.332031 221.125 L 119.328125 221.695312 L 119.3125 222.257812 L 119.289062 222.8125 L 119.257812 223.359375 L 119.214844 223.894531 L 119.164062 224.421875 L 119.101562 224.941406 L 119.03125 225.449219 L 118.953125 225.953125 L 118.863281 226.445312 L 118.761719 226.925781 L 118.652344 227.390625 L 118.523438 227.84375 L 118.386719 228.285156 L 118.238281 228.710938 L 118.074219 229.125 L 117.898438 229.523438 L 117.707031 229.910156 L 117.507812 230.28125 L 117.292969 230.640625 L 117.070312 230.984375 L 116.832031 231.3125 L 116.582031 231.625 L 116.3125 231.925781 L 116.035156 232.210938 L 115.738281 232.476562 L 115.425781 232.730469 L 115.101562 232.972656 L 114.765625 233.195312 L 114.410156 233.40625 L 114.046875 233.589844 L 113.664062 233.757812 L 113.265625 233.90625 L 112.851562 234.035156 L 112.417969 234.144531 L 111.96875 234.230469 L 111.503906 234.300781 L 111.019531 234.347656 L 110.519531 234.378906 L 110.003906 234.390625 L 109.46875 234.378906 L 108.945312 234.347656 L 108.433594 234.296875 L 107.9375 234.222656 L 107.457031 234.132812 L 106.984375 234.015625 L 106.53125 233.882812 L 106.089844 233.730469 L 105.660156 233.554688 L 105.246094 233.359375 L 104.847656 233.136719 L 104.46875 232.890625 L 104.109375 232.621094 L 103.769531 232.324219 L 103.449219 232 L 103.144531 231.648438 L 102.863281 231.269531 L 102.597656 230.867188 L 102.355469 230.4375 L 102.128906 229.984375 L 102.011719 229.984375 L 102.015625 229.996094 L 102.019531 230.015625 L 102.023438 230.039062 L 102.027344 230.074219 L 102.03125 230.113281 L 102.03125 230.207031 L 102.035156 230.265625 L 102.035156 230.40625 L 102.039062 230.480469 L 102.046875 230.644531 L 102.050781 230.734375 L 102.054688 230.828125 L 102.054688 231.019531 L 102.058594 231.125 L 102.058594 231.34375 L 102.0625 231.457031 L 102.070312 231.691406 L 102.074219 231.8125 L 102.078125 231.941406 L 102.078125 232.199219 L 102.082031 232.332031 L 102.082031 232.609375 L 102.085938 232.742188 L 102.101562 233.289062 L 102.101562 233.558594 L 102.105469 233.695312 L 102.105469 243.882812 L 97.886719 243.882812 L 97.886719 213.378906 L 97.882812 213.199219 L 97.882812 212.84375 L 97.878906 212.667969 L 97.867188 212.152344 L 97.863281 211.984375 L 97.863281 211.652344 L 97.859375 211.492188 L 97.859375 211.179688 L 97.855469 211.027344 L 97.847656 210.738281 L 97.84375 210.597656 L 97.839844 210.460938 L 97.835938 210.320312 L 97.832031 210.1875 L 97.824219 210.054688 L 97.820312 209.929688 L 97.816406 209.808594 L 97.8125 209.691406 L 97.808594 209.578125 L 97.800781 209.46875 L 97.796875 209.363281 L 97.789062 209.167969 L 97.785156 209.078125 L 97.777344 208.992188 L 97.773438 208.914062 L 97.765625 208.773438 L 97.761719 208.710938 L 97.753906 208.65625 L 97.75 208.605469 L 97.746094 208.5625 L 101.824219 208.5625 L 101.828125 208.578125 L 101.832031 208.601562 L 101.839844 208.632812 L 101.84375 208.671875 L 101.847656 208.71875 L 101.851562 208.773438 L 101.855469 208.832031 L 101.863281 208.898438 L 101.867188 208.972656 L 101.871094 209.054688 L 101.878906 209.140625 L 101.890625 209.230469 L 101.898438 209.324219 L 101.90625 209.421875 L 101.914062 209.523438 L 101.917969 209.625 L 101.925781 209.734375 L 101.929688 209.847656 L 101.9375 209.964844 L 101.941406 210.085938 L 101.949219 210.203125 L 101.960938 210.320312 L 101.96875 210.445312 L 101.976562 210.566406 L 101.984375 210.695312 L 101.988281 210.820312 L 101.996094 210.949219 L 102 211.082031 L 102.007812 211.214844 L 102.011719 211.351562 L 102.042969 211.882812 L 102.050781 212.140625 L 102.058594 212.390625 L 102.058594 212.640625 L 102.152344 212.640625 L 102.269531 212.398438 L 102.394531 212.167969 L 102.519531 211.941406 L 102.648438 211.722656 L 102.78125 211.515625 L 102.914062 211.3125 L 103.054688 211.117188 L 103.195312 210.929688 L 103.339844 210.75 L 103.488281 210.578125 L 103.640625 210.40625 L 103.796875 210.242188 L 103.957031 210.085938 L 104.121094 209.933594 L 104.464844 209.652344 L 104.640625 209.523438 L 104.824219 209.398438 L 105.007812 209.28125 L 105.199219 209.171875 L 105.394531 209.0625 L 105.59375 208.957031 L 105.792969 208.863281 L 106 208.773438 L 106.214844 208.691406 L 106.429688 208.613281 L 106.648438 208.542969 L 106.871094 208.480469 L 107.101562 208.421875 L 107.332031 208.375 L 107.574219 208.324219 L 107.820312 208.28125 L 108.074219 208.242188 L 108.332031 208.207031 L 108.597656 208.179688 L 108.867188 208.15625 L 109.144531 208.136719 L 109.425781 208.125 L 109.710938 208.117188 L 110.003906 208.117188 L 110.519531 208.125 L 111.019531 208.152344 L 111.503906 208.199219 L 111.96875 208.265625 L 112.417969 208.351562 L 112.851562 208.453125 L 113.265625 208.574219 L 113.664062 208.714844 L 114.046875 208.875 L 114.410156 209.054688 L 114.765625 209.25 L 115.101562 209.457031 L 115.425781 209.683594 L 115.738281 209.925781 L 116.035156 210.183594 L 116.3125 210.457031 L 116.582031 210.746094 L 116.832031 211.046875 L 117.070312 211.367188 L 117.292969 211.703125 L 117.507812 212.046875 L 117.707031 212.40625 L 117.898438 212.777344 L 118.074219 213.167969 L 118.238281 213.570312 L 118.386719 213.988281 L 118.523438 214.417969 L 118.652344 214.867188 L 118.761719 215.328125 L 118.863281 215.804688 L 118.953125 216.285156 L 119.03125 216.78125 L 119.101562 217.285156 L 119.164062 217.800781 L 119.214844 218.328125 L 119.257812 218.867188 L 119.289062 219.414062 L 119.3125 219.972656 L 119.328125 220.542969 Z M 114.902344 221.21875 L 114.898438 220.753906 L 114.890625 220.300781 L 114.878906 219.855469 L 114.855469 219.425781 L 114.832031 219.003906 L 114.800781 218.589844 L 114.765625 218.1875 L 114.722656 217.796875 L 114.675781 217.414062 L 114.621094 217.046875 L 114.5625 216.683594 L 114.492188 216.335938 L 114.414062 216 L 114.328125 215.671875 L 114.234375 215.359375 L 114.132812 215.054688 L 114.019531 214.761719 L 113.902344 214.480469 L 113.773438 214.210938 L 113.636719 213.953125 L 113.496094 213.703125 L 113.347656 213.46875 L 113.1875 213.246094 L 113.019531 213.035156 L 112.839844 212.839844 L 112.652344 212.652344 L 112.457031 212.476562 L 112.25 212.316406 L 112.035156 212.167969 L 111.808594 212.03125 L 111.574219 211.90625 L 111.324219 211.792969 L 111.066406 211.695312 L 110.796875 211.609375 L 110.515625 211.539062 L 110.21875 211.476562 L 109.914062 211.433594 L 109.597656 211.398438 L 109.265625 211.378906 L 108.925781 211.375 L 108.644531 211.378906 L 108.371094 211.390625 L 108.097656 211.410156 L 107.828125 211.4375 L 107.5625 211.472656 L 107.296875 211.515625 L 107.039062 211.570312 L 106.78125 211.628906 L 106.527344 211.695312 L 106.277344 211.773438 L 106.03125 211.859375 L 105.792969 211.960938 L 105.558594 212.074219 L 105.332031 212.207031 L 105.113281 212.351562 L 104.894531 212.511719 L 104.6875 212.683594 L 104.484375 212.875 L 104.289062 213.078125 L 104.097656 213.296875 L 103.917969 213.527344 L 103.746094 213.78125 L 103.582031 214.046875 L 103.425781 214.332031 L 103.277344 214.636719 L 103.136719 214.957031 L 103 215.296875 L 102.875 215.648438 L 102.757812 216.023438 L 102.644531 216.414062 L 102.542969 216.816406 L 102.449219 217.246094 L 102.371094 217.699219 L 102.300781 218.179688 L 102.242188 218.679688 L 102.191406 219.203125 L 102.152344 219.753906 L 102.128906 220.328125 L 102.109375 220.925781 L 102.105469 221.546875 L 102.109375 222.074219 L 102.125 222.589844 L 102.144531 223.089844 L 102.175781 223.570312 L 102.21875 224.035156 L 102.265625 224.484375 L 102.324219 224.917969 L 102.390625 225.332031 L 102.464844 225.730469 L 102.550781 226.117188 L 102.644531 226.480469 L 102.746094 226.828125 L 102.855469 227.164062 L 102.972656 227.484375 L 103.097656 227.792969 L 103.230469 228.085938 L 103.371094 228.363281 L 103.519531 228.628906 L 103.675781 228.878906 L 103.839844 229.117188 L 104.015625 229.339844 L 104.203125 229.550781 L 104.394531 229.746094 L 104.597656 229.933594 L 104.808594 230.105469 L 105.023438 230.265625 L 105.25 230.414062 L 105.480469 230.546875 L 105.722656 230.671875 L 105.972656 230.78125 L 106.230469 230.871094 L 106.492188 230.957031 L 106.765625 231.03125 L 107.046875 231.09375 L 107.332031 231.148438 L 107.625 231.191406 L 107.929688 231.226562 L 108.238281 231.25 L 108.554688 231.265625 L 108.878906 231.273438 L 109.222656 231.265625 L 109.558594 231.246094 L 109.878906 231.210938 L 110.1875 231.164062 L 110.484375 231.101562 L 110.769531 231.027344 L 111.042969 230.9375 L 111.300781 230.835938 L 111.550781 230.722656 L 111.785156 230.59375 L 112.015625 230.449219 L 112.234375 230.296875 L 112.445312 230.128906 L 112.644531 229.949219 L 112.835938 229.761719 L 113.015625 229.558594 L 113.183594 229.339844 L 113.34375 229.113281 L 113.496094 228.875 L 113.636719 228.625 L 113.773438 228.359375 L 113.902344 228.085938 L 114.019531 227.800781 L 114.132812 227.5 L 114.234375 227.195312 L 114.328125 226.875 L 114.414062 226.542969 L 114.492188 226.199219 L 114.5625 225.847656 L 114.621094 225.484375 L 114.675781 225.101562 L 114.722656 224.710938 L 114.765625 224.3125 L 114.800781 223.898438 L 114.832031 223.480469 L 114.855469 223.046875 L 114.878906 222.605469 L 114.890625 222.152344 L 114.898438 221.691406 Z M 114.902344 221.21875 "/>
<path style=" stroke:none;fill-rule:evenodd;fill:rgb(100%,100%,100%);fill-opacity:1;" d="M 125.285156 233.921875 L 125.285156 200.898438 L 150.339844 200.898438 L 150.339844 204.554688 L 129.761719 204.554688 L 129.761719 215.148438 L 148.933594 215.148438 L 148.933594 218.757812 L 129.761719 218.757812 L 129.761719 230.265625 L 151.300781 230.265625 L 151.300781 233.921875 Z M 125.285156 233.921875 "/>
<path style=" stroke:none;fill-rule:evenodd;fill:rgb(100%,100%,100%);fill-opacity:1;" d="M 157.300781 233.921875 L 157.300781 200.898438 L 161.777344 200.898438 L 161.777344 230.265625 L 178.464844 230.265625 L 178.464844 233.921875 Z M 157.300781 233.921875 "/>
<path style="fill:none;stroke-width:3.75;stroke-linecap:round;stroke-linejoin:round;stroke:rgb(100%,100%,100%);stroke-opacity:1;stroke-miterlimit:10;" d="M 191.023438 107.601562 C 191.023438 153.453125 153.851562 190.625 108 190.625 C 62.148438 190.625 24.976562 153.453125 24.976562 107.601562 C 24.976562 61.746094 62.148438 24.574219 108 24.574219 C 153.851562 24.574219 191.023438 61.746094 191.023438 107.601562 "/>
<path style=" stroke:none;fill-rule:evenodd;fill:rgb(100%,86.666667%,33.333333%);fill-opacity:1;" d="M 93.414062 141.171875 L 79.925781 119.90625 L 79.925781 109.25 L 81.652344 109.25 L 81.9375 109.230469 L 82.203125 109.164062 L 82.449219 109.058594 L 82.675781 108.917969 L 82.878906 108.746094 L 83.050781 108.546875 L 83.191406 108.320312 L 83.292969 108.070312 L 83.359375 107.804688 L 83.382812 107.523438 L 83.359375 107.242188 L 83.292969 106.976562 L 83.191406 106.726562 L 83.050781 106.5 L 82.878906 106.300781 L 82.675781 106.128906 L 82.449219 105.988281 L 82.203125 105.882812 L 81.9375 105.816406 L 81.652344 105.796875 L 67.925781 105.796875 L 67.644531 105.816406 L 67.382812 105.882812 L 67.140625 105.988281 L 66.921875 106.128906 L 66.726562 106.300781 L 66.5625 106.5 L 66.425781 106.726562 L 66.328125 106.976562 L 66.265625 107.242188 L 66.246094 107.523438 L 66.265625 107.804688 L 66.328125 108.070312 L 66.425781 108.320312 L 66.5625 108.546875 L 66.726562 108.746094 L 66.921875 108.917969 L 67.140625 109.058594 L 67.382812 109.164062 L 67.644531 109.230469 L 67.925781 109.25 L 69.652344 109.25 L 69.652344 119.90625 L 56.167969 141.171875 L 55.664062 142.101562 L 55.363281 142.988281 L 55.253906 143.8125 L 55.335938 144.566406 L 55.597656 145.238281 L 56.03125 145.816406 L 56.632812 146.285156 L 57.398438 146.636719 L 58.316406 146.855469 L 59.382812 146.929688 L 90.246094 146.929688 L 91.3125 146.855469 L 92.226562 146.636719 L 92.984375 146.285156 L 93.578125 145.816406 L 94.007812 145.238281 L 94.261719 144.566406 L 94.335938 143.8125 L 94.222656 142.988281 L 93.917969 142.101562 Z M 72.535156 121.730469 L 73.109375 120.914062 L 73.109375 109.25 L 76.519531 109.25 L 76.519531 120.914062 L 77.046875 121.730469 L 84.34375 133.25 L 65.285156 133.25 Z M 72.535156 121.730469 "/>
<path style=" stroke:none;fill-rule:evenodd;fill:rgb(100%,86.666667%,33.333333%);fill-opacity:1;" d="M 121.726562 63.726562 L 121.480469 61.5 L 120.765625 59.390625 L 119.621094 57.425781 L 118.085938 55.636719 L 116.203125 54.042969 L 114.003906 52.675781 L 111.53125 51.566406 L 108.824219 50.742188 L 105.921875 50.226562 L 102.863281 50.046875 L 99.804688 50.226562 L 96.902344 50.742188 L 94.195312 51.566406 L 91.722656 52.675781 L 89.527344 54.042969 L 87.640625 55.636719 L 86.105469 57.425781 L 84.960938 59.390625 L 84.246094 61.5 L 84 63.726562 L 84.082031 65.011719 L 84.324219 66.265625 L 84.71875 67.480469 L 85.257812 68.660156 L 85.933594 69.785156 L 86.738281 70.859375 L 87.664062 71.871094 L 88.707031 72.816406 L 89.855469 73.6875 L 91.105469 74.476562 L 90.824219 75.109375 L 90.53125 75.675781 L 90.226562 76.191406 L 89.914062 76.65625 L 89.597656 77.089844 L 89.277344 77.488281 L 88.953125 77.867188 L 88.625 78.230469 L 87.984375 78.941406 L 87.898438 79.042969 L 87.808594 79.140625 L 87.726562 79.238281 L 87.644531 79.339844 L 87.574219 79.445312 L 87.515625 79.558594 L 87.472656 79.675781 L 87.445312 79.804688 L 87.441406 79.941406 L 87.457031 80.09375 L 87.492188 80.222656 L 87.546875 80.34375 L 87.613281 80.460938 L 87.691406 80.566406 L 87.78125 80.664062 L 87.878906 80.746094 L 87.980469 80.816406 L 88.09375 80.867188 L 88.207031 80.898438 L 88.320312 80.910156 L 88.414062 80.910156 L 88.660156 80.878906 L 88.898438 80.847656 L 89.136719 80.8125 L 89.371094 80.773438 L 89.605469 80.730469 L 89.832031 80.6875 L 90.058594 80.636719 L 90.28125 80.589844 L 90.503906 80.535156 L 90.71875 80.476562 L 91.523438 80.25 L 92.3125 79.996094 L 93.09375 79.714844 L 93.863281 79.40625 L 94.621094 79.074219 L 95.363281 78.714844 L 96.085938 78.332031 L 96.796875 77.921875 L 97.488281 77.484375 L 98.160156 77.023438 L 98.609375 77.105469 L 99.0625 77.179688 L 99.523438 77.242188 L 99.988281 77.300781 L 100.457031 77.347656 L 100.933594 77.386719 L 101.410156 77.414062 L 101.890625 77.4375 L 102.375 77.449219 L 102.863281 77.453125 L 105.921875 77.273438 L 108.824219 76.753906 L 111.53125 75.921875 L 114.003906 74.804688 L 116.203125 73.433594 L 118.085938 71.835938 L 119.621094 70.035156 L 120.765625 68.066406 L 121.480469 65.953125 Z M 132 70.589844 L 131.914062 69.269531 L 131.65625 67.984375 L 131.234375 66.738281 L 130.664062 65.546875 L 129.949219 64.40625 L 129.097656 63.324219 L 128.121094 62.304688 L 127.023438 61.359375 L 125.816406 60.484375 L 124.511719 59.695312 L 124.621094 60.085938 L 124.722656 60.476562 L 124.816406 60.875 L 124.898438 61.273438 L 124.96875 61.675781 L 125.027344 62.078125 L 125.074219 62.488281 L 125.109375 62.898438 L 125.128906 63.308594 L 125.136719 63.726562 L 125.0625 65.152344 L 124.84375 66.554688 L 124.488281 67.921875 L 123.988281 69.253906 L 123.355469 70.542969 L 122.585938 71.785156 L 121.6875 72.980469 L 120.65625 74.117188 L 119.503906 75.195312 L 118.222656 76.207031 L 116.945312 77.0625 L 115.59375 77.839844 L 114.175781 78.535156 L 112.691406 79.148438 L 111.15625 79.675781 L 109.570312 80.113281 L 107.941406 80.457031 L 106.277344 80.707031 L 104.582031 80.859375 L 102.863281 80.910156 L 102.632812 80.90625 L 102.398438 80.898438 L 102.164062 80.886719 L 101.925781 80.875 L 101.6875 80.855469 L 101.449219 80.839844 L 101.214844 80.820312 L 100.976562 80.800781 L 100.742188 80.78125 L 100.511719 80.765625 L 101.550781 81.402344 L 102.648438 81.984375 L 103.804688 82.507812 L 105.011719 82.96875 L 106.265625 83.371094 L 107.566406 83.703125 L 108.90625 83.96875 L 110.285156 84.160156 L 111.695312 84.277344 L 113.136719 84.320312 L 113.625 84.3125 L 114.109375 84.300781 L 114.589844 84.28125 L 115.066406 84.25 L 115.542969 84.210938 L 116.011719 84.164062 L 116.476562 84.105469 L 116.9375 84.042969 L 117.390625 83.96875 L 117.839844 83.886719 L 118.511719 84.347656 L 119.203125 84.78125 L 119.914062 85.183594 L 120.636719 85.5625 L 121.378906 85.914062 L 122.136719 86.238281 L 122.90625 86.539062 L 123.6875 86.816406 L 124.476562 87.066406 L 125.28125 87.292969 L 125.496094 87.351562 L 125.941406 87.453125 L 126.394531 87.546875 L 126.628906 87.589844 L 126.863281 87.628906 L 127.101562 87.664062 L 127.339844 87.695312 L 127.585938 87.726562 L 127.714844 87.730469 L 127.839844 87.710938 L 127.964844 87.671875 L 128.082031 87.613281 L 128.191406 87.539062 L 128.289062 87.449219 L 128.375 87.34375 L 128.449219 87.226562 L 128.503906 87.097656 L 128.542969 86.957031 L 128.558594 86.808594 L 128.554688 86.667969 L 128.527344 86.539062 L 128.484375 86.421875 L 128.425781 86.308594 L 128.355469 86.207031 L 128.191406 86.003906 L 128.101562 85.90625 L 128.015625 85.804688 L 127.375 85.09375 L 127.046875 84.730469 L 126.722656 84.351562 L 126.402344 83.953125 L 126.085938 83.523438 L 125.773438 83.054688 L 125.46875 82.539062 L 125.175781 81.972656 L 124.894531 81.34375 L 126.144531 80.554688 L 127.292969 79.683594 L 128.335938 78.746094 L 129.261719 77.738281 L 130.066406 76.667969 L 130.742188 75.542969 L 131.28125 74.367188 L 131.675781 73.144531 L 131.917969 71.886719 Z M 132 70.589844 "/>
<path style=" stroke:none;fill-rule:evenodd;fill:rgb(100%,86.666667%,33.333333%);fill-opacity:1;" d="M 126.640625 136.636719 L 155.777344 136.636719 L 156.46875 136.578125 L 157.128906 136.417969 L 157.75 136.15625 L 158.316406 135.808594 L 158.820312 135.382812 L 159.253906 134.882812 L 159.609375 134.324219 L 159.875 133.710938 L 160.039062 133.054688 L 160.097656 132.363281 L 160.097656 113.5 L 160.039062 112.808594 L 159.875 112.152344 L 159.609375 111.539062 L 159.253906 110.980469 L 158.820312 110.480469 L 158.316406 110.054688 L 157.75 109.707031 L 157.128906 109.445312 L 156.46875 109.285156 L 155.777344 109.226562 L 126.640625 109.226562 L 125.949219 109.285156 L 125.292969 109.445312 L 124.683594 109.707031 L 124.121094 110.054688 L 123.625 110.480469 L 123.195312 110.980469 L 122.847656 111.539062 L 122.589844 112.152344 L 122.425781 112.808594 L 122.371094 113.5 L 122.371094 132.363281 L 122.425781 133.054688 L 122.589844 133.710938 L 122.847656 134.324219 L 123.195312 134.882812 L 123.625 135.382812 L 124.121094 135.808594 L 124.683594 136.15625 L 125.292969 136.417969 L 125.949219 136.578125 Z M 125.777344 113.5 L 125.789062 113.371094 L 125.828125 113.242188 L 125.882812 113.121094 L 125.957031 113.007812 L 126.046875 112.90625 L 126.152344 112.816406 L 126.265625 112.742188 L 126.386719 112.683594 L 126.511719 112.648438 L 126.640625 112.636719 L 155.777344 112.636719 L 155.90625 112.648438 L 156.035156 112.683594 L 156.15625 112.742188 L 156.269531 112.816406 L 156.371094 112.90625 L 156.460938 113.007812 L 156.535156 113.121094 L 156.59375 113.242188 L 156.628906 113.371094 L 156.640625 113.5 L 156.640625 132.363281 L 156.628906 132.492188 L 156.59375 132.621094 L 156.535156 132.742188 L 156.460938 132.855469 L 156.371094 132.957031 L 156.269531 133.046875 L 156.15625 133.121094 L 156.035156 133.179688 L 155.90625 133.214844 L 155.777344 133.226562 L 126.640625 133.226562 L 126.511719 133.214844 L 126.386719 133.179688 L 126.265625 133.121094 L 126.152344 133.046875 L 126.046875 132.957031 L 125.957031 132.855469 L 125.882812 132.742188 L 125.828125 132.621094 L 125.789062 132.492188 L 125.777344 132.363281 Z M 162.640625 138.363281 L 115.507812 138.363281 L 115.507812 140.90625 L 115.5625 141.328125 L 115.722656 141.730469 L 115.984375 142.101562 L 116.332031 142.441406 L 116.761719 142.742188 L 117.257812 143 L 117.816406 143.210938 L 118.429688 143.367188 L 119.085938 143.464844 L 119.777344 143.5 L 162.640625 143.5 L 163.332031 143.464844 L 163.988281 143.367188 L 164.601562 143.210938 L 165.160156 143 L 165.660156 142.742188 L 166.085938 142.441406 L 166.4375 142.101562 L 166.695312 141.730469 L 166.859375 141.328125 L 166.914062 140.90625 L 166.914062 138.363281 Z M 143.347656 140.90625 L 139.074219 140.90625 L 139.003906 140.902344 L 138.9375 140.890625 L 138.875 140.871094 L 138.816406 140.839844 L 138.769531 140.804688 L 138.726562 140.761719 L 138.691406 140.710938 L 138.664062 140.65625 L 138.648438 140.59375 L 138.640625 140.523438 L 138.648438 140.453125 L 138.664062 140.386719 L 138.691406 140.324219 L 138.726562 140.269531 L 138.769531 140.21875 L 138.816406 140.175781 L 138.875 140.140625 L 138.9375 140.113281 L 139.003906 140.097656 L 139.074219 140.089844 L 143.347656 140.089844 L 143.417969 140.097656 L 143.484375 140.113281 L 143.546875 140.140625 L 143.601562 140.175781 L 143.652344 140.21875 L 143.695312 140.269531 L 143.730469 140.324219 L 143.757812 140.386719 L 143.773438 140.453125 L 143.777344 140.523438 L 143.773438 140.59375 L 143.757812 140.65625 L 143.730469 140.710938 L 143.695312 140.761719 L 143.652344 140.804688 L 143.601562 140.839844 L 143.546875 140.871094 L 143.484375 140.890625 L 143.417969 140.902344 Z M 143.347656 140.90625 "/>
</g>
</svg>
