<svg width="512.001" height="512.001" xmlns="http://www.w3.org/2000/svg">

 <g>
  <title>background</title>
  <rect fill="none" id="canvas_background" height="402" width="582" y="-1" x="-1"/>
 </g>
 <g>
  <title>Layer 1</title>
  <g id="svg_1">
   <g id="svg_2">
    <path fill="#cccccc" id="svg_3" d="m473.718,209.364c-9.45,-31.045 -26.615,-55.216 -49.644,-69.901c-26.006,-16.584 -49.508,-20.056 -72.629,-18.69c2.622,-3.523 5.1,-7.235 7.413,-11.16c17.071,-28.971 21.691,-61.543 24.173,-79.042c0.275,-1.938 0.521,-3.673 0.754,-5.174l3.957,-25.397l-24.735,6.997c-1.461,0.413 -3.154,0.866 -5.043,1.374c-17.07,4.579 -48.844,13.102 -75.539,33.551c-15.848,12.14 -27.518,26.807 -34.858,43.583c-21.069,-29.46 -46.85,-40.3 -48.466,-40.956l-12.41,30.551c0.374,0.152 32.92,13.856 47.881,56.449c-12.035,-1.226 -23.418,-3.27 -34.556,-5.274c-36.664,-6.595 -71.296,-12.825 -112.089,13.189c-23.028,14.684 -40.195,38.856 -49.644,69.901c-8.258,27.131 -10.725,59.599 -7.135,93.895c4.533,43.297 18.335,86.996 38.866,123.053c22.965,40.331 52.436,68.154 85.227,80.462c9.97,3.742 18.862,5.225 26.897,5.225c17.686,-0.001 31.197,-7.198 42.76,-13.359c10.44,-5.563 19.456,-10.367 31.103,-10.367c11.647,0 20.663,4.805 31.103,10.367c16.817,8.96 37.746,20.113 69.658,8.134c32.791,-12.307 62.262,-40.131 85.227,-80.462c20.531,-36.055 34.334,-79.756 38.866,-123.053c3.588,-34.296 1.121,-66.765 -7.137,-93.896zm-171.24,-141.265c14.011,-10.733 30.639,-17.624 44.636,-22.225c-2.875,14.452 -7.704,31.791 -16.666,47c-13.413,22.762 -32.852,35.491 -59.17,38.635c-0.059,-26.504 10.227,-47.344 31.2,-63.41zm145.579,231.727c-4.068,38.861 -16.401,77.988 -34.725,110.168c-19.105,33.55 -42.674,56.34 -68.159,65.905c-17.966,6.745 -27.752,1.53 -42.563,-6.363c-11.907,-6.344 -26.726,-14.241 -46.609,-14.241c-19.883,0 -34.702,7.896 -46.609,14.241c-14.813,7.892 -24.597,13.105 -42.563,6.363c-25.485,-9.565 -49.054,-32.355 -68.159,-65.905c-18.324,-32.181 -30.657,-71.307 -34.725,-110.168c-6.51,-62.197 9.082,-111.752 41.713,-132.559c29.92,-19.079 54.5,-14.656 88.522,-8.537c18.067,3.25 38.544,6.934 61.823,6.934c23.279,0 43.756,-3.684 61.823,-6.934c34.023,-6.12 58.602,-10.541 88.522,8.537c32.626,20.807 48.22,70.363 41.709,132.559z"/>
   </g>
  </g>
  <g id="svg_4">
   <g id="svg_5">
    <path fill="#cccccc" id="svg_6" d="m140.507,172.232c-18.702,9.351 -32.031,26.767 -39.92,39.732c-9.993,16.423 -17.115,35.142 -20.057,52.706l32.522,5.446c4.765,-28.459 23.697,-59.139 42.201,-68.391l-14.746,-29.493z"/>
   </g>
  </g>
  <g id="svg_7"/>
  <g id="svg_8"/>
  <g id="svg_9"/>
  <g id="svg_10"/>
  <g id="svg_11"/>
  <g id="svg_12"/>
  <g id="svg_13"/>
  <g id="svg_14"/>
  <g id="svg_15"/>
  <g id="svg_16"/>
  <g id="svg_17"/>
  <g id="svg_18"/>
  <g id="svg_19"/>
  <g id="svg_20"/>
  <g id="svg_21"/>
 </g>
</svg>