<svg id="svg" xmlns="http://www.w3.org/2000/svg" xmlns:xlink="http://www.w3.org/1999/xlink" width="400" height="400" viewBox="0, 0, 400,400"><g id="svgg"><path id="path0" d="M197.000 38.810 C 194.800 40.114,192.679 41.370,192.286 41.602 C 189.893 43.017,191.310 46.398,194.065 45.847 C 195.265 45.607,195.688 46.552,194.785 47.455 C 194.557 47.683,194.322 48.695,194.263 49.702 C 194.168 51.341,193.924 51.760,191.942 53.680 C 188.638 56.880,188.867 60.576,192.323 59.817 C 193.394 59.582,193.420 59.617,193.274 61.139 C 193.116 62.803,194.126 64.000,195.689 64.000 C 196.673 64.000,196.597 64.243,195.046 66.055 C 191.937 69.686,191.551 71.295,193.235 73.604 C 193.584 74.083,193.376 74.525,192.238 75.733 C 191.447 76.571,190.800 77.479,190.800 77.751 C 190.800 78.022,190.350 78.855,189.800 79.600 C 187.338 82.937,190.046 85.644,193.600 83.400 C 195.055 82.482,196.400 82.101,196.400 82.608 C 196.400 83.406,194.100 86.180,192.698 87.073 C 186.853 90.796,188.067 96.361,193.942 92.779 C 194.680 92.329,195.490 92.046,195.742 92.149 C 196.058 92.279,196.046 92.347,195.700 92.368 C 195.425 92.386,195.195 92.625,195.189 92.900 C 195.182 93.175,194.447 94.210,193.555 95.200 C 191.798 97.149,191.200 98.318,191.200 99.806 C 191.200 100.358,190.674 101.251,189.950 101.928 C 187.688 104.042,188.676 106.617,191.600 106.226 C 194.727 105.808,196.800 105.698,196.800 105.949 C 196.800 106.778,194.547 109.313,193.198 110.001 C 187.908 112.700,187.059 117.240,191.958 116.629 C 193.523 116.434,193.979 116.548,194.987 117.384 L 196.174 118.369 195.351 119.484 C 192.321 123.591,190.800 126.170,190.800 127.197 C 190.800 128.438,190.060 129.400,188.798 129.801 C 188.253 129.974,188.000 130.406,188.000 131.164 C 188.000 132.062,187.379 132.799,184.765 135.005 C 180.920 138.250,180.290 139.118,180.467 140.924 C 180.594 142.221,180.391 142.457,176.200 145.903 C 169.346 151.537,168.685 152.328,168.482 155.139 C 168.333 157.196,168.419 157.568,169.165 158.090 C 170.388 158.947,170.029 159.440,165.672 162.880 C 155.433 170.964,153.381 174.066,156.580 176.617 C 157.888 177.660,158.191 177.319,152.216 181.519 C 145.866 185.981,144.671 187.253,145.000 189.201 C 145.235 190.591,145.150 190.811,144.130 191.444 C 139.649 194.227,138.931 197.538,142.658 198.237 L 144.114 198.510 143.157 199.280 C 142.631 199.704,141.715 200.363,141.123 200.747 C 138.544 202.415,135.588 205.336,135.281 206.518 C 135.040 207.450,134.134 208.355,131.615 210.178 C 127.015 213.508,126.493 214.269,127.140 216.705 C 128.044 220.113,130.077 220.657,134.500 218.675 C 138.795 216.750,137.493 217.933,130.200 222.584 C 127.120 224.548,123.497 226.930,122.149 227.877 C 120.801 228.825,119.541 229.608,119.349 229.618 C 118.417 229.665,113.370 234.378,112.513 236.000 C 111.991 236.990,110.963 238.430,110.229 239.200 C 108.623 240.885,108.000 242.029,108.000 243.291 C 108.000 243.844,107.320 244.964,106.362 245.992 C 104.328 248.174,103.932 249.168,104.420 250.870 C 104.629 251.599,104.800 252.322,104.800 252.477 C 104.800 252.632,103.660 253.573,102.266 254.568 C 98.553 257.217,96.000 260.079,96.000 261.592 C 96.000 262.456,95.544 263.317,94.457 264.509 C 92.302 266.870,91.871 267.836,92.162 269.653 L 92.409 271.200 90.359 271.200 C 88.479 271.200,82.681 273.714,81.020 275.249 C 80.329 275.887,79.781 275.616,79.326 274.409 C 78.172 271.351,76.879 271.704,67.660 277.590 C 64.722 279.466,62.025 281.180,61.666 281.400 C 61.307 281.620,60.290 282.264,59.407 282.832 C 58.523 283.399,57.552 284.010,57.248 284.188 C 56.170 284.820,57.018 283.661,59.690 280.849 C 63.470 276.872,63.664 274.000,60.154 274.000 C 59.123 274.000,58.800 273.830,58.800 273.289 C 58.800 272.144,57.630 270.800,56.634 270.800 C 55.461 270.800,49.174 274.018,47.569 275.441 C 47.221 275.748,46.828 276.000,46.695 276.000 C 46.426 276.000,43.495 277.725,39.704 280.115 C 36.745 281.980,36.279 281.891,35.641 279.336 C 34.718 275.636,33.975 274.594,32.297 274.645 C 29.750 274.722,28.756 276.716,30.170 278.914 C 30.483 279.401,31.202 281.409,31.767 283.375 C 32.840 287.106,33.093 287.468,34.900 287.861 C 35.772 288.050,36.000 288.326,36.000 289.188 C 36.000 291.619,38.409 292.240,41.609 290.633 C 43.995 289.435,44.318 289.685,42.786 291.544 C 41.086 293.606,41.201 295.354,43.104 296.356 C 43.787 296.716,43.950 297.062,43.771 297.773 C 43.641 298.290,43.802 299.231,44.129 299.863 C 44.516 300.611,44.652 301.642,44.519 302.821 C 44.150 306.098,46.236 306.673,50.463 304.459 C 53.284 302.982,59.603 299.218,60.546 298.453 C 61.113 297.993,63.958 296.400,64.212 296.400 C 64.627 296.400,62.797 297.954,59.058 300.777 C 49.958 307.646,48.435 310.097,51.734 312.560 L 52.806 313.361 55.436 312.506 C 57.784 311.743,58.034 311.723,57.772 312.326 C 57.053 313.976,57.117 315.537,57.933 316.236 C 58.616 316.820,58.710 317.244,58.517 318.872 C 58.202 321.529,58.990 322.400,61.709 322.400 C 63.654 322.400,63.689 322.421,63.485 323.492 C 63.023 325.905,65.717 327.622,68.026 326.386 C 69.211 325.752,70.400 326.567,70.400 328.013 C 70.400 331.944,75.530 333.856,80.536 331.791 C 81.159 331.533,81.260 331.664,81.194 332.643 C 80.971 335.922,82.023 336.984,85.142 336.628 L 87.284 336.383 85.552 337.892 C 81.202 341.681,80.181 343.643,81.366 345.935 C 81.774 346.724,82.326 347.200,82.831 347.200 C 83.278 347.200,84.305 347.650,85.114 348.200 C 86.990 349.475,88.590 349.472,92.527 348.186 C 95.390 347.251,97.447 347.182,95.851 348.075 C 93.514 349.383,95.772 352.800,98.974 352.800 C 101.061 352.800,101.365 352.918,102.574 354.200 C 103.998 355.710,106.184 356.063,108.972 355.235 C 109.647 355.034,111.100 354.670,112.200 354.427 C 113.300 354.183,115.485 353.357,117.056 352.592 C 120.537 350.895,120.707 350.887,120.482 352.422 C 120.215 354.241,121.638 355.600,123.808 355.600 C 124.963 355.600,125.697 355.844,126.193 356.392 C 127.478 357.812,129.296 357.822,133.424 356.433 C 136.739 355.318,137.380 355.218,138.790 355.597 C 140.458 356.047,144.258 355.754,144.633 355.147 C 144.751 354.956,145.163 354.800,145.549 354.800 C 145.935 354.800,147.838 353.990,149.778 353.000 C 154.045 350.823,154.400 350.787,154.400 352.530 C 154.400 354.921,159.433 357.088,160.600 355.200 C 160.921 354.681,163.079 354.681,163.400 355.200 C 164.089 356.314,168.712 355.134,173.112 352.720 C 175.046 351.659,175.308 351.776,175.005 353.570 C 174.325 357.592,178.676 359.037,183.960 356.543 C 188.036 354.619,192.972 352.127,194.921 351.010 C 196.757 349.957,197.873 349.887,196.873 350.887 C 194.812 352.948,197.254 354.909,201.542 354.636 C 211.877 353.976,211.223 353.940,212.429 355.231 C 213.839 356.741,215.060 356.735,219.272 355.198 C 221.475 354.394,222.970 354.069,223.783 354.219 C 224.461 354.344,225.791 354.163,226.785 353.810 C 228.486 353.205,228.622 353.214,229.669 353.988 C 230.977 354.955,233.172 355.042,234.814 354.193 C 235.783 353.691,236.308 353.666,237.823 354.047 C 240.008 354.598,241.601 354.213,245.717 352.141 C 248.979 350.499,249.276 350.620,249.143 353.538 C 248.954 357.696,250.631 358.632,254.632 356.602 C 255.779 356.020,257.286 355.603,258.245 355.602 C 260.095 355.600,263.898 354.137,268.484 351.663 C 272.257 349.628,272.510 349.607,272.181 351.358 C 271.896 352.880,273.989 355.712,275.952 356.458 C 276.915 356.824,281.330 354.921,284.400 352.816 C 284.950 352.439,285.670 352.009,286.000 351.862 C 286.330 351.714,287.140 351.262,287.800 350.857 C 291.369 348.666,298.708 344.223,299.400 343.835 C 299.840 343.588,300.701 343.050,301.312 342.639 C 303.832 340.947,302.597 342.515,299.121 345.422 C 291.869 351.487,290.889 352.807,292.223 354.711 C 293.149 356.034,295.183 355.867,298.454 354.200 C 301.773 352.508,301.457 352.510,301.771 354.185 C 302.172 356.322,303.930 356.487,307.252 354.699 C 308.653 353.944,310.207 353.111,310.705 352.847 C 311.471 352.440,311.541 352.238,311.163 351.532 C 310.785 350.825,310.879 350.557,311.775 349.788 C 320.452 342.332,322.875 338.166,319.211 337.003 C 318.068 336.641,318.204 335.805,319.546 334.939 C 322.872 332.794,329.600 326.471,329.600 325.491 C 329.600 325.044,330.646 323.696,332.000 322.400 C 334.558 319.951,335.115 318.292,333.759 317.166 C 333.018 316.551,330.078 316.562,329.459 317.181 C 328.971 317.669,327.600 317.746,327.600 317.286 C 327.600 317.114,328.163 316.640,328.850 316.234 C 330.671 315.158,333.771 312.888,336.560 310.587 C 337.902 309.480,339.569 308.175,340.263 307.686 C 341.583 306.758,345.469 301.261,345.834 299.806 C 345.964 299.289,345.706 298.534,345.164 297.845 L 344.283 296.725 346.530 294.548 C 348.071 293.055,348.912 291.869,349.208 290.770 C 349.545 289.520,350.165 288.761,352.033 287.310 C 355.072 284.950,356.173 283.245,355.831 281.427 C 355.601 280.198,355.725 279.970,357.290 278.753 C 361.988 275.098,361.506 271.878,356.287 272.061 C 354.919 272.108,353.407 271.934,352.926 271.674 C 351.744 271.033,350.660 271.077,348.144 271.870 C 346.212 272.479,345.953 272.483,345.309 271.914 C 344.175 270.912,341.650 270.692,339.400 271.400 C 338.300 271.746,336.444 272.195,335.275 272.398 C 334.107 272.600,332.594 273.044,331.914 273.383 C 331.234 273.722,330.199 274.000,329.614 274.000 C 328.452 274.000,324.543 275.455,322.526 276.638 C 320.810 277.644,320.524 277.182,321.325 274.693 C 322.482 271.092,319.934 269.434,315.400 270.836 C 313.344 271.472,305.723 275.061,304.338 276.045 C 302.590 277.288,302.000 277.049,302.000 275.097 C 302.000 273.444,302.049 273.380,303.700 272.867 C 304.635 272.577,307.920 270.802,311.000 268.923 C 317.238 265.117,326.011 259.884,328.868 258.263 C 330.210 257.502,330.807 256.881,330.988 256.056 C 331.178 255.191,332.008 254.390,334.367 252.797 C 338.109 250.271,338.993 249.065,338.180 247.596 C 337.273 245.957,337.388 245.818,343.100 241.662 C 350.964 235.940,352.000 234.907,352.000 232.795 C 352.000 231.273,352.218 230.884,354.100 229.048 C 356.265 226.936,357.200 224.909,357.200 222.323 C 357.200 221.402,357.588 220.630,358.559 219.617 C 360.504 217.589,360.731 216.054,359.330 214.389 C 358.441 213.333,358.218 212.667,358.210 211.043 C 358.201 209.142,358.106 208.955,356.688 208.033 L 355.176 207.051 357.759 204.720 C 362.795 200.175,363.595 194.800,359.235 194.800 C 358.874 194.800,358.223 194.557,357.789 194.260 C 357.355 193.963,356.505 193.599,355.900 193.452 C 354.675 193.154,354.549 192.551,355.285 190.517 C 355.989 188.568,354.857 186.554,352.736 185.983 C 351.442 185.634,350.484 184.405,351.500 184.398 C 352.843 184.387,356.400 180.206,356.400 178.638 C 356.400 175.161,353.646 175.008,347.200 178.128 C 343.572 179.883,343.664 179.351,347.457 176.638 C 353.478 172.330,355.008 170.018,353.377 167.689 C 352.459 166.378,349.884 166.496,346.600 168.000 C 343.639 169.356,341.927 169.645,343.646 168.498 C 344.222 168.114,345.466 167.284,346.411 166.654 C 352.553 162.559,353.803 158.027,349.007 157.248 L 347.463 156.997 348.732 155.800 C 352.804 151.957,348.193 147.435,342.517 149.706 C 340.279 150.602,340.154 150.202,342.013 148.090 C 344.416 145.360,343.964 142.400,341.144 142.400 C 340.504 142.400,339.835 141.973,339.263 141.200 C 338.775 140.540,338.036 140.000,337.621 140.000 C 336.473 140.000,335.576 139.562,335.842 139.132 C 337.602 136.284,333.883 133.150,330.739 134.832 C 329.484 135.504,329.444 135.018,330.610 133.257 C 332.125 130.967,332.074 128.914,330.471 127.677 L 329.262 126.745 330.231 125.317 C 332.334 122.218,329.572 119.954,325.790 121.678 C 324.830 122.115,324.657 122.047,323.742 120.878 C 322.964 119.884,322.437 119.600,321.371 119.600 C 319.621 119.600,319.648 119.378,321.600 117.707 C 324.406 115.305,323.372 111.467,320.095 112.120 C 319.454 112.248,318.678 112.102,318.224 111.769 C 316.696 110.650,313.126 111.814,308.738 114.862 C 306.651 116.312,306.715 115.561,308.871 113.300 C 311.879 110.146,312.282 107.621,309.976 106.387 C 309.118 105.928,309.119 105.922,310.346 104.656 C 312.225 102.717,312.698 100.990,311.711 99.664 C 310.438 97.953,309.081 98.047,304.921 100.134 C 302.857 101.169,302.523 100.915,303.585 99.115 C 305.381 96.071,303.032 93.878,299.462 95.265 C 297.731 95.938,296.488 96.578,291.653 99.285 C 289.590 100.440,289.787 99.988,292.609 97.096 C 295.783 93.843,296.274 91.374,294.003 90.081 C 292.628 89.299,292.614 89.251,293.344 87.843 C 294.053 86.477,293.717 84.826,292.648 84.414 C 292.181 84.234,291.377 83.511,290.860 82.806 C 289.879 81.468,289.158 81.378,285.977 82.200 C 284.999 82.452,284.961 82.399,285.122 81.014 C 285.499 77.786,282.863 77.115,279.000 79.457 C 277.680 80.257,276.060 81.219,275.400 81.595 C 274.740 81.970,273.165 82.941,271.900 83.751 C 268.397 85.995,268.846 85.187,272.909 81.936 C 278.428 77.519,279.007 75.675,276.000 72.076 C 274.900 70.760,274.000 69.332,274.000 68.903 C 274.000 67.024,271.960 66.424,268.900 67.405 C 268.108 67.659,268.000 67.555,268.000 66.536 C 268.000 61.705,262.198 62.034,253.618 67.352 C 250.539 69.261,248.597 69.888,250.646 68.313 C 254.124 65.638,257.200 62.147,257.200 60.874 C 257.200 60.133,255.061 58.400,254.145 58.400 C 253.397 58.400,253.200 58.186,253.200 57.374 C 253.200 55.702,252.534 54.928,250.446 54.178 C 248.799 53.585,248.434 53.269,248.232 52.260 C 247.535 48.776,244.342 48.947,238.823 52.762 C 236.850 54.127,236.305 54.143,236.593 52.830 C 236.850 51.661,236.196 48.643,235.481 47.700 C 234.969 47.024,233.167 47.068,232.149 47.780 C 231.694 48.100,230.259 48.937,228.960 49.642 C 227.662 50.346,225.379 51.705,223.888 52.661 C 219.565 55.432,219.508 55.198,223.136 49.600 C 225.142 46.506,224.905 43.909,222.597 43.683 C 220.663 43.493,220.193 43.247,220.733 42.707 C 222.081 41.359,219.977 39.033,217.938 39.618 C 217.205 39.828,215.913 40.000,215.068 40.000 C 213.634 40.000,209.298 41.999,207.584 43.450 C 207.075 43.882,206.764 43.866,205.794 43.363 C 205.148 43.028,204.300 42.837,203.910 42.939 C 202.874 43.210,202.728 42.669,203.403 41.055 C 205.454 36.147,202.966 35.274,197.000 38.810 M213.439 53.600 C 215.101 53.600,215.104 53.438,213.381 56.379 C 210.409 61.449,210.218 66.800,213.009 66.800 C 214.120 66.800,214.209 67.104,213.532 68.590 C 213.135 69.460,213.189 69.789,213.883 70.727 L 214.702 71.836 213.551 73.124 C 210.659 76.361,214.395 81.545,217.776 78.987 C 219.008 78.056,220.000 78.240,220.000 79.400 C 220.000 80.906,221.425 82.135,222.842 81.852 C 224.561 81.508,224.269 82.111,221.590 84.441 C 217.439 88.051,215.830 94.351,219.044 94.406 C 220.259 94.427,220.503 95.143,219.660 96.215 C 218.671 97.471,218.579 98.963,219.400 100.400 C 219.714 100.950,219.978 101.771,219.986 102.224 C 220.041 105.459,225.893 107.570,229.378 105.612 C 232.257 103.996,232.416 104.833,229.594 106.747 C 224.855 109.961,223.079 114.800,226.638 114.800 C 227.601 114.800,227.564 115.460,226.517 116.931 C 225.373 118.539,225.428 119.105,227.162 123.617 C 227.856 125.422,227.855 125.442,226.884 126.905 C 224.028 131.209,228.403 133.163,234.392 130.258 C 238.513 128.259,238.720 128.822,234.800 131.372 C 232.021 133.181,228.800 136.400,228.800 137.369 C 228.800 139.751,231.391 140.749,234.032 139.384 C 235.768 138.486,236.285 139.111,234.725 140.222 C 231.019 142.861,230.282 143.496,229.550 144.681 C 228.661 146.119,228.944 147.205,230.538 148.470 C 231.300 149.076,231.334 149.273,230.891 150.499 C 229.525 154.277,231.726 156.490,235.532 155.164 C 237.732 154.397,237.868 155.024,235.806 156.435 C 232.805 158.488,231.602 159.888,231.587 161.342 C 231.580 162.034,231.310 162.949,230.987 163.376 C 229.406 165.467,230.757 167.600,233.662 167.600 C 234.728 167.600,235.600 167.686,235.600 167.792 C 235.600 167.897,235.306 168.719,234.946 169.618 C 234.458 170.837,234.408 171.368,234.746 171.706 C 235.307 172.267,235.346 174.663,234.800 175.000 C 234.194 175.375,234.322 177.037,235.000 177.600 C 235.778 178.246,235.760 178.493,234.775 180.654 C 233.452 183.560,234.191 185.350,237.066 186.200 L 238.419 186.600 235.909 188.465 C 229.486 193.239,228.646 195.190,231.908 197.757 L 232.890 198.529 231.945 199.255 C 231.425 199.655,230.830 199.986,230.622 199.991 C 228.620 200.038,227.278 204.022,228.800 205.400 C 229.311 205.863,229.600 206.632,229.600 207.530 C 229.600 209.274,230.566 210.400,232.062 210.400 C 233.804 210.400,233.464 211.176,230.442 214.103 C 226.338 218.079,224.736 221.789,226.215 223.900 C 226.796 224.729,226.730 224.905,225.015 227.089 C 222.438 230.371,222.464 232.404,225.100 233.754 C 226.701 234.575,226.701 234.560,225.058 236.003 C 224.320 236.651,223.396 238.040,223.005 239.091 C 222.615 240.141,222.138 241.171,221.947 241.380 C 221.250 242.143,221.593 244.032,222.600 244.965 C 223.988 246.251,223.921 246.409,221.100 248.491 C 215.888 252.337,213.145 255.530,213.080 257.827 C 213.009 260.343,215.101 261.493,218.158 260.616 L 219.316 260.284 218.513 261.087 C 217.520 262.080,212.118 265.600,211.588 265.600 C 211.374 265.600,211.200 265.244,211.200 264.809 C 211.200 264.374,210.750 263.724,210.200 263.363 C 208.947 262.542,208.952 262.272,210.250 260.570 C 212.018 258.253,211.232 255.600,208.778 255.600 C 207.776 255.600,207.683 255.473,207.720 254.162 C 207.750 253.111,207.520 252.543,206.867 252.050 L 205.973 251.376 207.223 250.188 C 207.911 249.535,208.825 248.315,209.256 247.478 L 210.038 245.957 209.178 244.565 L 208.318 243.173 210.114 241.592 C 212.745 239.277,212.907 236.000,210.391 236.000 C 209.301 236.000,209.399 235.406,210.775 233.677 C 214.271 229.283,211.265 226.896,206.083 229.951 C 203.552 231.443,203.436 230.985,205.712 228.483 C 208.799 225.089,209.126 222.798,206.614 222.168 C 206.056 222.028,205.600 221.753,205.600 221.558 C 205.600 221.253,208.117 218.188,208.849 217.600 C 212.157 214.946,211.779 211.429,208.112 210.744 C 205.782 210.309,205.254 209.846,205.902 208.807 C 206.168 208.383,206.501 207.262,206.644 206.317 C 206.865 204.843,207.320 204.203,209.851 201.796 C 213.121 198.687,213.428 197.792,211.789 196.152 C 210.996 195.359,210.530 195.196,209.627 195.394 C 207.970 195.758,207.756 195.009,208.986 193.149 C 210.797 190.413,209.117 187.053,206.609 188.395 C 205.118 189.193,204.948 188.620,206.141 186.817 C 206.724 185.937,207.200 185.054,207.200 184.854 C 207.200 184.654,208.470 183.464,210.023 182.209 C 212.543 180.173,212.832 179.797,212.723 178.695 C 212.566 177.118,209.642 174.866,207.700 174.827 C 206.545 174.803,205.566 173.207,206.700 173.197 C 207.244 173.193,208.400 170.757,208.400 169.617 C 208.400 167.682,205.439 166.640,203.802 167.999 C 203.486 168.261,203.045 168.414,202.823 168.338 C 202.213 168.130,207.224 162.386,209.318 160.893 C 213.841 157.667,211.208 154.044,206.187 156.586 C 203.691 157.850,203.484 157.597,205.469 155.708 C 210.323 151.090,211.200 149.777,211.200 147.127 C 211.200 142.909,209.484 142.158,205.428 144.600 C 201.778 146.798,201.979 145.850,206.077 141.542 C 208.094 139.421,210.000 136.409,210.000 135.342 C 210.000 134.171,208.199 132.238,207.395 132.547 C 206.539 132.875,206.237 132.043,206.933 131.274 C 208.693 129.329,208.437 126.847,206.411 126.203 C 205.305 125.852,205.379 125.497,207.000 123.373 C 210.040 119.390,207.626 115.922,203.680 118.604 C 201.690 119.956,201.624 119.280,203.494 116.719 C 206.296 112.884,206.885 111.699,206.611 110.450 C 206.309 109.076,206.760 108.547,209.767 106.749 C 214.349 104.008,213.561 98.745,208.902 100.966 C 207.072 101.839,207.609 100.328,210.815 95.582 C 212.049 93.756,212.263 89.029,211.147 88.248 C 209.902 87.376,209.319 87.427,207.115 88.600 C 204.235 90.133,204.046 89.795,206.200 86.973 C 206.970 85.964,207.600 84.898,207.600 84.603 C 207.600 84.309,208.167 83.558,208.860 82.934 C 212.217 79.913,212.646 78.977,211.338 77.531 C 210.577 76.691,208.027 76.533,207.280 77.280 C 206.557 78.003,206.674 77.160,207.595 75.011 C 208.033 73.990,209.023 72.559,209.795 71.830 C 211.688 70.045,211.267 66.800,209.143 66.800 C 208.975 66.800,208.939 65.945,209.062 64.900 C 209.321 62.709,208.326 61.317,206.789 61.719 C 205.508 62.054,205.389 60.993,206.565 59.725 C 208.454 57.687,209.456 54.453,208.400 53.800 C 207.813 53.437,207.900 53.098,208.895 51.861 L 209.790 50.749 210.934 52.174 C 211.841 53.305,212.359 53.600,213.439 53.600 M195.600 145.979 C 195.600 146.961,191.447 151.228,189.319 152.432 C 188.043 153.154,186.460 154.127,185.800 154.593 C 185.140 155.059,184.060 155.701,183.400 156.020 C 182.740 156.338,182.086 156.756,181.946 156.948 C 181.807 157.140,181.494 157.231,181.250 157.149 C 181.007 157.067,181.910 156.109,183.256 155.020 C 184.602 153.930,185.905 152.848,186.152 152.614 C 186.398 152.381,187.799 151.245,189.263 150.090 C 190.728 148.935,192.502 147.452,193.206 146.795 C 194.463 145.620,195.600 145.233,195.600 145.979 M318.799 147.500 C 318.799 147.665,317.944 148.332,316.899 148.983 C 315.855 149.633,314.910 150.277,314.800 150.413 C 314.690 150.549,314.015 151.001,313.300 151.416 C 312.585 151.832,312.000 152.314,312.000 152.486 C 312.000 152.659,311.640 152.800,311.200 152.800 C 310.760 152.800,310.400 152.980,310.400 153.200 C 310.400 153.420,310.130 153.600,309.800 153.600 C 309.470 153.600,309.200 153.780,309.200 154.000 C 309.200 154.220,308.795 154.389,308.300 154.375 C 307.441 154.350,307.437 154.333,308.200 154.004 C 308.640 153.814,309.630 153.104,310.400 152.427 C 311.170 151.750,312.115 151.095,312.500 150.971 C 312.885 150.847,313.200 150.578,313.200 150.373 C 313.200 150.168,313.560 150.000,314.000 150.000 C 314.440 150.000,314.800 149.841,314.800 149.646 C 314.800 149.451,315.422 148.996,316.183 148.635 C 316.944 148.274,317.674 147.803,317.807 147.589 C 318.090 147.131,318.800 147.067,318.799 147.500 M282.000 154.973 C 282.000 155.356,253.176 174.000,252.583 174.000 C 252.487 174.000,251.188 174.765,249.697 175.700 C 246.028 178.001,244.049 178.982,243.727 178.660 C 243.395 178.328,243.790 178.025,250.000 173.847 C 257.224 168.987,275.086 158.126,279.200 156.092 C 279.970 155.711,280.660 155.265,280.733 155.100 C 280.873 154.786,282.000 154.673,282.000 154.973 M307.600 154.971 C 307.600 155.131,305.238 156.400,304.939 156.400 C 304.455 156.400,304.947 155.717,305.700 155.344 C 306.653 154.872,307.600 154.686,307.600 154.971 M194.731 158.400 C 195.548 158.400,195.238 159.512,194.191 160.336 C 193.189 161.124,190.800 160.626,190.800 159.629 C 190.800 158.533,192.861 157.131,193.552 157.757 C 193.943 158.111,194.474 158.400,194.731 158.400 M193.600 170.824 C 193.600 171.057,192.932 172.047,192.115 173.024 C 190.490 174.969,188.800 175.466,188.800 174.000 C 188.800 173.560,188.955 173.200,189.144 173.200 C 189.333 173.200,190.278 172.572,191.244 171.804 C 193.089 170.337,193.600 170.124,193.600 170.824 M326.551 179.546 C 325.893 180.158,313.948 187.975,309.047 191.000 C 304.782 193.632,296.561 198.279,287.800 203.009 C 284.149 204.980,280.944 206.736,279.200 207.722 C 277.301 208.795,275.122 209.996,271.888 211.754 C 270.396 212.564,268.506 213.607,267.688 214.070 C 266.869 214.534,265.390 215.360,264.400 215.906 C 263.410 216.452,262.429 217.057,262.220 217.249 C 262.011 217.442,261.516 217.600,261.120 217.600 C 260.724 217.600,260.400 217.780,260.400 218.000 C 260.400 218.220,260.029 218.400,259.576 218.400 C 258.500 218.400,258.864 217.860,260.494 217.039 C 261.212 216.677,263.385 215.395,265.322 214.190 C 267.260 212.986,269.015 212.000,269.222 212.000 C 269.430 212.000,269.600 211.820,269.600 211.600 C 269.600 211.380,269.789 211.200,270.019 211.200 C 270.250 211.200,271.423 210.570,272.627 209.800 C 273.831 209.030,274.870 208.400,274.936 208.400 C 275.002 208.400,277.256 207.140,279.944 205.600 C 282.632 204.060,284.931 202.800,285.054 202.800 C 285.176 202.800,285.754 202.466,286.338 202.057 C 286.922 201.649,288.300 200.817,289.400 200.210 C 293.021 198.210,297.769 195.501,299.600 194.392 C 300.590 193.791,302.390 192.764,303.600 192.109 C 304.810 191.453,308.037 189.631,310.772 188.059 C 313.506 186.486,315.798 185.200,315.864 185.200 C 315.930 185.200,316.933 184.600,318.092 183.866 C 319.252 183.132,320.785 182.278,321.500 181.968 C 322.215 181.658,322.800 181.269,322.800 181.102 C 322.800 180.936,323.025 180.790,323.300 180.777 C 323.575 180.764,324.430 180.325,325.200 179.800 C 326.881 178.655,327.665 178.507,326.551 179.546 M254.400 182.800 C 254.400 183.020,254.207 183.200,253.971 183.200 C 253.736 183.200,253.271 183.472,252.939 183.804 C 252.607 184.136,252.160 184.299,251.945 184.166 C 251.730 184.033,252.149 183.592,252.877 183.185 C 254.480 182.289,254.400 182.310,254.400 182.800 M188.400 189.869 C 188.400 190.479,187.019 191.600,186.268 191.600 C 185.493 191.600,185.498 191.560,186.400 190.600 C 187.276 189.668,188.400 189.257,188.400 189.869 M349.200 191.136 C 349.200 192.275,341.099 198.306,335.600 201.260 C 333.267 202.513,330.014 204.459,326.000 207.004 C 321.400 209.919,314.755 214.040,313.576 214.708 C 307.414 218.200,298.975 222.915,297.000 223.971 C 295.680 224.676,294.060 225.569,293.400 225.955 C 292.740 226.341,291.210 227.177,290.000 227.812 C 288.790 228.448,287.350 229.262,286.800 229.621 C 286.250 229.980,284.180 231.139,282.200 232.195 C 275.475 235.782,273.404 236.915,271.000 238.316 C 266.932 240.688,262.005 243.202,261.490 243.168 C 261.198 243.150,261.239 243.043,261.593 242.904 C 261.919 242.776,262.408 242.475,262.679 242.236 C 263.854 241.197,264.380 240.800,264.577 240.800 C 264.692 240.800,266.490 239.675,268.572 238.300 C 270.654 236.925,275.276 233.910,278.843 231.600 C 282.410 229.290,286.755 226.455,288.498 225.300 C 290.242 224.145,291.744 223.200,291.838 223.200 C 291.931 223.200,293.491 222.242,295.304 221.071 C 298.413 219.064,306.369 214.027,312.600 210.122 C 329.697 199.407,349.200 189.290,349.200 191.136 M193.400 196.400 C 193.206 196.713,192.976 196.736,192.710 196.470 C 192.490 196.250,192.440 195.858,192.600 195.600 C 192.794 195.287,193.024 195.264,193.290 195.530 C 193.510 195.750,193.560 196.142,193.400 196.400 M193.984 203.819 C 193.719 204.139,193.299 204.386,193.051 204.368 C 192.768 204.349,192.786 204.262,193.100 204.135 C 193.375 204.024,193.600 203.618,193.600 203.233 C 193.600 202.277,194.168 201.773,194.333 202.583 C 194.406 202.944,194.249 203.500,193.984 203.819 M294.676 209.381 C 294.336 209.721,293.729 209.999,293.329 209.998 C 292.792 209.996,292.916 209.800,293.800 209.253 C 295.168 208.405,295.590 208.467,294.676 209.381 M292.600 210.800 C 292.464 211.020,292.093 211.200,291.776 211.200 C 291.459 211.200,291.200 211.380,291.200 211.600 C 291.200 211.820,290.945 212.000,290.633 212.000 C 290.322 212.000,290.007 212.146,289.933 212.324 C 289.860 212.503,288.630 213.353,287.200 214.214 C 285.770 215.074,284.043 216.189,283.362 216.689 C 282.681 217.190,281.999 217.600,281.846 217.600 C 281.693 217.600,281.080 217.936,280.484 218.347 C 278.937 219.413,273.076 223.051,272.600 223.241 C 272.380 223.328,270.940 224.233,269.400 225.251 C 267.860 226.269,264.440 228.409,261.800 230.006 C 259.160 231.604,256.100 233.491,255.000 234.199 C 251.762 236.283,244.354 240.800,244.174 240.800 C 244.083 240.800,242.782 241.565,241.283 242.500 C 236.651 245.389,231.943 248.188,229.086 249.752 C 227.026 250.880,225.690 251.154,227.000 250.180 C 227.440 249.853,228.075 249.363,228.410 249.092 C 229.050 248.577,235.707 244.091,236.859 243.400 C 237.226 243.180,239.028 242.050,240.863 240.889 C 252.278 233.668,256.579 231.033,262.877 227.400 C 263.259 227.180,265.229 226.010,267.257 224.800 C 269.284 223.590,271.585 222.234,272.371 221.787 C 273.157 221.339,274.520 220.513,275.400 219.950 C 276.280 219.388,277.900 218.430,279.000 217.822 C 280.100 217.214,281.180 216.579,281.400 216.412 C 281.620 216.244,282.610 215.655,283.600 215.103 C 284.590 214.551,286.542 213.446,287.938 212.649 C 289.335 211.852,290.640 211.200,290.838 211.200 C 291.037 211.200,291.200 211.020,291.200 210.800 C 291.200 210.580,291.571 210.400,292.024 210.400 C 292.477 210.400,292.736 210.580,292.600 210.800 M194.400 216.426 C 194.400 217.864,192.321 219.237,190.240 219.175 C 189.417 219.150,189.416 219.142,190.200 218.804 C 190.640 218.614,191.630 217.905,192.400 217.230 C 193.876 215.935,194.400 215.724,194.400 216.426 M257.824 219.413 C 257.396 219.736,256.777 220.000,256.447 220.000 C 255.994 220.000,256.037 219.856,256.624 219.413 C 257.051 219.090,257.670 218.825,258.000 218.825 C 258.453 218.825,258.410 218.969,257.824 219.413 M312.000 228.964 C 312.000 229.130,306.937 232.400,306.680 232.400 C 306.604 232.400,303.692 234.110,300.210 236.200 C 296.729 238.290,293.808 240.000,293.721 240.000 C 293.633 240.000,292.577 240.630,291.373 241.400 C 290.169 242.170,289.104 242.800,289.005 242.800 C 288.906 242.800,287.604 243.582,286.112 244.537 C 284.621 245.492,282.815 246.526,282.100 246.835 C 281.385 247.143,280.800 247.531,280.800 247.698 C 280.800 247.864,280.395 247.988,279.900 247.973 L 279.000 247.946 279.900 247.512 C 280.395 247.273,280.800 246.925,280.800 246.739 C 280.800 246.552,280.974 246.400,281.186 246.400 C 281.399 246.400,283.372 245.140,285.572 243.600 C 287.772 242.060,289.660 240.800,289.767 240.800 C 289.874 240.800,291.095 240.015,292.481 239.055 C 293.866 238.096,296.530 236.545,298.400 235.610 C 300.270 234.675,303.240 233.111,305.000 232.135 C 306.760 231.159,308.695 230.149,309.300 229.892 C 309.905 229.635,310.400 229.284,310.400 229.112 C 310.400 228.941,310.760 228.800,311.200 228.800 C 311.640 228.800,312.000 228.874,312.000 228.964 M193.200 234.746 C 193.200 235.491,191.500 237.200,190.758 237.200 C 189.521 237.200,189.334 236.006,190.438 235.158 C 191.429 234.396,193.200 234.132,193.200 234.746 M192.967 264.143 C 192.694 264.852,191.600 265.058,191.600 264.400 C 191.600 264.180,191.870 264.000,192.200 264.000 C 192.530 264.000,192.800 263.790,192.800 263.533 C 192.800 263.277,192.894 263.161,193.009 263.276 C 193.125 263.391,193.105 263.781,192.967 264.143 M162.000 264.260 C 162.000 264.403,160.826 265.659,159.392 267.052 C 157.725 268.670,156.696 270.019,156.543 270.787 C 156.111 272.946,153.765 273.655,151.040 272.452 L 149.480 271.763 152.240 270.116 C 155.747 268.023,160.479 264.956,161.000 264.438 C 161.463 263.978,162.000 263.882,162.000 264.260 M184.829 266.900 C 184.635 267.395,184.191 268.340,183.841 269.000 C 183.119 270.363,183.008 271.834,183.600 272.200 C 184.369 272.675,183.986 273.165,182.100 274.121 C 179.743 275.315,177.744 276.447,175.600 277.800 C 170.238 281.185,169.789 281.132,172.795 277.470 C 174.118 275.858,175.200 274.182,175.200 273.746 C 175.200 272.475,175.950 271.763,180.400 268.806 C 185.036 265.725,185.339 265.595,184.829 266.900 M105.600 267.938 C 105.600 268.124,105.222 268.618,104.759 269.037 C 102.672 270.926,102.381 272.640,103.850 274.386 C 104.427 275.072,104.832 275.688,104.750 275.754 C 104.667 275.820,102.710 277.090,100.400 278.576 C 98.090 280.062,94.870 282.165,93.244 283.250 C 87.922 286.798,88.914 285.339,94.834 280.911 C 99.062 277.749,101.451 275.335,101.824 273.847 C 102.081 272.825,101.444 271.200,100.786 271.200 C 99.700 271.200,100.648 269.911,102.500 268.870 C 104.689 267.639,105.600 267.365,105.600 267.938 M223.597 267.900 C 223.596 268.065,223.237 268.740,222.800 269.400 C 222.363 270.060,222.004 271.260,222.003 272.066 C 222.000 273.401,221.814 273.646,219.900 274.829 C 214.188 278.359,211.847 279.284,213.650 277.300 C 214.840 275.990,215.600 274.320,215.600 273.014 C 215.600 272.252,216.233 271.691,218.818 270.165 C 220.588 269.119,222.129 268.115,222.242 267.932 C 222.498 267.518,223.601 267.492,223.597 267.900 M248.800 267.860 C 248.800 268.231,246.102 270.801,245.720 270.794 C 245.210 270.784,244.204 270.062,244.412 269.855 C 245.338 268.930,248.800 267.355,248.800 267.860 M194.191 269.106 C 193.047 269.929,190.800 273.054,190.800 273.823 C 190.800 276.031,189.273 278.117,187.059 278.933 C 186.369 279.187,186.376 279.106,187.159 277.781 C 188.142 276.113,188.195 275.292,187.387 274.224 C 186.459 272.996,186.809 272.668,192.599 269.339 C 193.485 268.829,194.855 268.629,194.191 269.106 M262.678 270.292 C 262.772 272.097,262.209 272.528,260.744 271.771 C 260.136 271.457,259.361 271.200,259.020 271.200 C 257.976 271.200,258.325 270.601,259.900 269.688 C 262.079 268.425,262.586 268.535,262.678 270.292 M284.064 270.580 C 284.856 272.320,289.566 272.473,290.604 270.794 C 290.914 270.291,292.400 270.277,292.400 270.776 C 292.400 270.983,292.220 271.264,292.000 271.400 C 291.780 271.536,291.600 272.062,291.600 272.569 C 291.600 273.391,291.356 273.519,289.334 273.756 C 287.068 274.022,279.414 277.693,274.092 281.065 C 272.933 281.799,271.905 282.400,271.807 282.400 C 271.710 282.400,269.148 283.958,266.115 285.862 C 263.082 287.766,260.060 289.630,259.400 290.005 C 257.423 291.127,248.366 296.819,245.936 298.466 C 244.691 299.310,243.570 300.000,243.444 300.000 C 243.319 300.000,240.501 301.755,237.182 303.900 C 233.863 306.045,230.857 307.980,230.503 308.200 C 230.148 308.420,228.045 309.766,225.829 311.192 C 223.613 312.618,221.440 313.986,221.000 314.233 C 220.260 314.649,206.682 323.172,204.962 324.300 C 204.543 324.575,203.300 325.347,202.200 326.017 C 201.100 326.686,198.490 328.305,196.400 329.615 C 192.947 331.778,182.769 337.927,174.600 342.784 C 172.840 343.830,169.780 345.549,167.800 346.603 C 165.820 347.657,163.991 348.681,163.736 348.879 C 163.457 349.095,163.176 349.085,163.034 348.855 C 162.825 348.517,163.553 347.875,168.000 344.476 C 172.895 340.735,194.242 326.934,201.579 322.766 C 202.581 322.197,204.883 320.802,206.696 319.666 C 208.508 318.530,210.067 317.600,210.160 317.600 C 210.253 317.600,212.385 316.360,214.898 314.845 C 217.410 313.330,220.081 311.774,220.833 311.389 C 221.585 311.004,222.290 310.558,222.400 310.398 C 222.510 310.238,223.410 309.700,224.400 309.201 C 225.390 308.703,226.650 307.985,227.200 307.605 C 227.750 307.225,229.010 306.462,230.000 305.909 C 230.990 305.356,233.330 304.005,235.200 302.908 C 243.160 298.235,252.117 292.942,253.322 292.200 C 254.037 291.760,255.606 290.807,256.810 290.082 C 259.284 288.593,259.003 288.767,264.975 285.036 C 274.198 279.273,276.043 277.152,274.164 274.470 C 273.236 273.146,273.710 272.402,275.487 272.391 C 276.396 272.385,278.038 271.851,279.600 271.053 C 282.825 269.406,283.496 269.335,284.064 270.580 M128.466 272.422 C 128.325 273.908,128.223 274.034,127.256 273.922 C 125.710 273.743,125.601 272.241,127.076 271.442 C 128.633 270.597,128.640 270.603,128.466 272.422 M166.600 272.000 C 166.464 272.220,166.104 272.400,165.800 272.400 C 165.496 272.400,165.136 272.220,165.000 272.000 C 164.859 271.772,165.204 271.600,165.800 271.600 C 166.396 271.600,166.741 271.772,166.600 272.000 M120.400 311.364 C 120.400 311.557,115.316 314.800,115.014 314.800 C 114.901 314.800,113.545 315.610,112.000 316.600 C 110.455 317.590,109.076 318.400,108.934 318.400 C 108.792 318.400,108.119 318.819,107.438 319.332 C 106.757 319.844,105.615 320.518,104.900 320.829 C 104.185 321.141,103.600 321.531,103.600 321.698 C 103.600 321.864,103.195 321.987,102.700 321.972 C 102.042 321.951,101.964 321.871,102.409 321.672 C 102.743 321.522,103.823 320.845,104.809 320.167 C 105.794 319.489,106.870 318.816,107.200 318.670 C 107.530 318.524,108.150 318.179,108.578 317.903 C 111.256 316.174,114.801 314.065,116.000 313.487 C 116.770 313.116,117.850 312.453,118.400 312.015 C 119.300 311.297,120.400 310.940,120.400 311.364 M129.891 322.400 C 129.331 322.840,128.778 323.200,128.660 323.200 C 128.543 323.200,126.771 324.249,124.724 325.531 C 120.122 328.411,115.390 331.215,113.800 332.004 C 113.140 332.331,112.486 332.756,112.346 332.948 C 112.207 333.140,111.864 333.221,111.584 333.128 C 110.908 332.903,122.877 325.141,127.600 322.743 C 130.182 321.431,131.343 321.258,129.891 322.400 " stroke="none" fill="#fbfbf9" fill-rule="evenodd"></path><path id="path1" d="M0.000 200.000 L 0.000 400.000 200.000 400.000 L 400.000 400.000 400.000 200.000 L 400.000 0.000 200.000 0.000 L 0.000 0.000 0.000 200.000 M203.269 37.062 C 204.156 37.865,204.199 39.149,203.403 41.055 C 202.728 42.669,202.874 43.210,203.910 42.939 C 204.300 42.837,205.148 43.028,205.794 43.363 C 206.764 43.866,207.075 43.882,207.584 43.450 C 209.298 41.999,213.634 40.000,215.068 40.000 C 215.913 40.000,217.205 39.828,217.938 39.618 C 219.977 39.033,222.081 41.359,220.733 42.707 C 220.193 43.247,220.663 43.493,222.597 43.683 C 224.905 43.909,225.142 46.506,223.136 49.600 C 219.508 55.198,219.565 55.432,223.888 52.661 C 225.379 51.705,227.662 50.346,228.960 49.642 C 230.259 48.937,231.694 48.100,232.149 47.780 C 233.167 47.068,234.969 47.024,235.481 47.700 C 236.196 48.643,236.850 51.661,236.593 52.830 C 236.305 54.143,236.850 54.127,238.823 52.762 C 244.342 48.947,247.535 48.776,248.232 52.260 C 248.434 53.269,248.799 53.585,250.446 54.178 C 252.534 54.928,253.200 55.702,253.200 57.374 C 253.200 58.186,253.397 58.400,254.145 58.400 C 255.061 58.400,257.200 60.133,257.200 60.874 C 257.200 62.147,254.124 65.638,250.646 68.313 C 248.597 69.888,250.539 69.261,253.618 67.352 C 262.198 62.034,268.000 61.705,268.000 66.536 C 268.000 67.555,268.108 67.659,268.900 67.405 C 271.960 66.424,274.000 67.024,274.000 68.903 C 274.000 69.332,274.900 70.760,276.000 72.076 C 279.007 75.675,278.428 77.519,272.909 81.936 C 268.846 85.187,268.397 85.995,271.900 83.751 C 273.165 82.941,274.740 81.970,275.400 81.595 C 276.060 81.219,277.680 80.257,279.000 79.457 C 282.863 77.115,285.499 77.786,285.122 81.014 C 284.961 82.399,284.999 82.452,285.977 82.200 C 289.158 81.378,289.879 81.468,290.860 82.806 C 291.377 83.511,292.181 84.234,292.648 84.414 C 293.717 84.826,294.053 86.477,293.344 87.843 C 292.614 89.251,292.628 89.299,294.003 90.081 C 296.274 91.374,295.783 93.843,292.609 97.096 C 289.787 99.988,289.590 100.440,291.653 99.285 C 296.488 96.578,297.731 95.938,299.462 95.265 C 303.032 93.878,305.381 96.071,303.585 99.115 C 302.523 100.915,302.857 101.169,304.921 100.134 C 309.081 98.047,310.438 97.953,311.711 99.664 C 312.698 100.990,312.225 102.717,310.346 104.656 C 309.119 105.922,309.118 105.928,309.976 106.387 C 312.282 107.621,311.879 110.146,308.871 113.300 C 306.715 115.561,306.651 116.312,308.738 114.862 C 313.126 111.814,316.696 110.650,318.224 111.769 C 318.678 112.102,319.454 112.248,320.095 112.120 C 323.372 111.467,324.406 115.305,321.600 117.707 C 319.648 119.378,319.621 119.600,321.371 119.600 C 322.437 119.600,322.964 119.884,323.742 120.878 C 324.657 122.047,324.830 122.115,325.790 121.678 C 329.572 119.954,332.334 122.218,330.231 125.317 L 329.262 126.745 330.471 127.677 C 332.074 128.914,332.125 130.967,330.610 133.257 C 329.444 135.018,329.484 135.504,330.739 134.832 C 333.883 133.150,337.602 136.284,335.842 139.132 C 335.576 139.562,336.473 140.000,337.621 140.000 C 338.036 140.000,338.775 140.540,339.263 141.200 C 339.835 141.973,340.504 142.400,341.144 142.400 C 343.964 142.400,344.416 145.360,342.013 148.090 C 340.154 150.202,340.279 150.602,342.517 149.706 C 348.193 147.435,352.804 151.957,348.732 155.800 L 347.463 156.997 349.007 157.248 C 353.803 158.027,352.553 162.559,346.411 166.654 C 345.466 167.284,344.222 168.114,343.646 168.498 C 341.927 169.645,343.639 169.356,346.600 168.000 C 349.884 166.496,352.459 166.378,353.377 167.689 C 355.008 170.018,353.478 172.330,347.457 176.638 C 343.664 179.351,343.572 179.883,347.200 178.128 C 353.646 175.008,356.400 175.161,356.400 178.638 C 356.400 180.206,352.843 184.387,351.500 184.398 C 350.484 184.405,351.442 185.634,352.736 185.983 C 354.857 186.554,355.989 188.568,355.285 190.517 C 354.549 192.551,354.675 193.154,355.900 193.452 C 356.505 193.599,357.355 193.963,357.789 194.260 C 358.223 194.557,358.874 194.800,359.235 194.800 C 363.595 194.800,362.795 200.175,357.759 204.720 L 355.176 207.051 356.688 208.033 C 358.106 208.955,358.201 209.142,358.210 211.043 C 358.218 212.667,358.441 213.333,359.330 214.389 C 360.731 216.054,360.504 217.589,358.559 219.617 C 357.588 220.630,357.200 221.402,357.200 222.323 C 357.200 224.909,356.265 226.936,354.100 229.048 C 352.218 230.884,352.000 231.273,352.000 232.795 C 352.000 234.907,350.964 235.940,343.100 241.662 C 337.388 245.818,337.273 245.957,338.180 247.596 C 338.993 249.065,338.109 250.271,334.367 252.797 C 332.008 254.390,331.178 255.191,330.988 256.056 C 330.807 256.881,330.210 257.502,328.868 258.263 C 326.011 259.884,317.238 265.117,311.000 268.923 C 307.920 270.802,304.635 272.577,303.700 272.867 C 302.049 273.380,302.000 273.444,302.000 275.097 C 302.000 277.049,302.590 277.288,304.338 276.045 C 305.723 275.061,313.344 271.472,315.400 270.836 C 319.934 269.434,322.482 271.092,321.325 274.693 C 320.524 277.182,320.810 277.644,322.526 276.638 C 324.543 275.455,328.452 274.000,329.614 274.000 C 330.199 274.000,331.234 273.722,331.914 273.383 C 332.594 273.044,334.107 272.600,335.275 272.398 C 336.444 272.195,338.300 271.746,339.400 271.400 C 341.650 270.692,344.175 270.912,345.309 271.914 C 345.953 272.483,346.212 272.479,348.144 271.870 C 350.660 271.077,351.744 271.033,352.926 271.674 C 353.407 271.934,354.919 272.108,356.287 272.061 C 361.506 271.878,361.988 275.098,357.290 278.753 C 355.725 279.970,355.601 280.198,355.831 281.427 C 356.173 283.245,355.072 284.950,352.033 287.310 C 350.165 288.761,349.545 289.520,349.208 290.770 C 348.912 291.869,348.071 293.055,346.530 294.548 L 344.283 296.725 345.164 297.845 C 345.706 298.534,345.964 299.289,345.834 299.806 C 345.469 301.261,341.583 306.758,340.263 307.686 C 339.569 308.175,337.902 309.480,336.560 310.587 C 333.771 312.888,330.671 315.158,328.850 316.234 C 328.163 316.640,327.600 317.114,327.600 317.286 C 327.600 317.746,328.971 317.669,329.459 317.181 C 330.078 316.562,333.018 316.551,333.759 317.166 C 335.115 318.292,334.558 319.951,332.000 322.400 C 330.646 323.696,329.600 325.044,329.600 325.491 C 329.600 326.471,322.872 332.794,319.546 334.939 C 318.204 335.805,318.068 336.641,319.211 337.003 C 322.875 338.166,320.452 342.332,311.775 349.788 C 310.879 350.557,310.785 350.825,311.163 351.532 C 311.541 352.238,311.471 352.440,310.705 352.847 C 310.207 353.111,308.653 353.944,307.252 354.699 C 303.930 356.487,302.172 356.322,301.771 354.185 C 301.457 352.510,301.773 352.508,298.454 354.200 C 295.183 355.867,293.149 356.034,292.223 354.711 C 290.889 352.807,291.869 351.487,299.121 345.422 C 302.597 342.515,303.832 340.947,301.312 342.639 C 300.701 343.050,299.840 343.588,299.400 343.835 C 298.708 344.223,291.369 348.666,287.800 350.857 C 287.140 351.262,286.330 351.714,286.000 351.862 C 285.670 352.009,284.950 352.439,284.400 352.816 C 281.330 354.921,276.915 356.824,275.952 356.458 C 273.989 355.712,271.896 352.880,272.181 351.358 C 272.510 349.607,272.257 349.628,268.484 351.663 C 263.898 354.137,260.095 355.600,258.245 355.602 C 257.286 355.603,255.779 356.020,254.632 356.602 C 250.631 358.632,248.954 357.696,249.143 353.538 C 249.276 350.620,248.979 350.499,245.717 352.141 C 241.601 354.213,240.008 354.598,237.823 354.047 C 236.308 353.666,235.783 353.691,234.814 354.193 C 233.172 355.042,230.977 354.955,229.669 353.988 C 228.622 353.214,228.486 353.205,226.785 353.810 C 225.791 354.163,224.461 354.344,223.783 354.219 C 222.970 354.069,221.475 354.394,219.272 355.198 C 215.060 356.735,213.839 356.741,212.429 355.231 C 211.223 353.940,211.877 353.976,201.542 354.636 C 197.254 354.909,194.812 352.948,196.873 350.887 C 197.873 349.887,196.757 349.957,194.921 351.010 C 192.972 352.127,188.036 354.619,183.960 356.543 C 178.676 359.037,174.325 357.592,175.005 353.570 C 175.308 351.776,175.046 351.659,173.112 352.720 C 168.712 355.134,164.089 356.314,163.400 355.200 C 163.079 354.681,160.921 354.681,160.600 355.200 C 159.433 357.088,154.400 354.921,154.400 352.530 C 154.400 350.787,154.045 350.823,149.778 353.000 C 147.838 353.990,145.935 354.800,145.549 354.800 C 145.163 354.800,144.751 354.956,144.633 355.147 C 144.258 355.754,140.458 356.047,138.790 355.597 C 137.380 355.218,136.739 355.318,133.424 356.433 C 129.296 357.822,127.478 357.812,126.193 356.392 C 125.697 355.844,124.963 355.600,123.808 355.600 C 121.638 355.600,120.215 354.241,120.482 352.422 C 120.707 350.887,120.537 350.895,117.056 352.592 C 115.485 353.357,113.300 354.183,112.200 354.427 C 111.100 354.670,109.647 355.034,108.972 355.235 C 106.184 356.063,103.998 355.710,102.574 354.200 C 101.365 352.918,101.061 352.800,98.974 352.800 C 95.772 352.800,93.514 349.383,95.851 348.075 C 97.447 347.182,95.390 347.251,92.527 348.186 C 88.590 349.472,86.990 349.475,85.114 348.200 C 84.305 347.650,83.278 347.200,82.831 347.200 C 82.326 347.200,81.774 346.724,81.366 345.935 C 80.181 343.643,81.202 341.681,85.552 337.892 L 87.284 336.383 85.142 336.628 C 82.023 336.984,80.971 335.922,81.194 332.643 C 81.260 331.664,81.159 331.533,80.536 331.791 C 75.530 333.856,70.400 331.944,70.400 328.013 C 70.400 326.567,69.211 325.752,68.026 326.386 C 65.717 327.622,63.023 325.905,63.485 323.492 C 63.689 322.421,63.654 322.400,61.709 322.400 C 58.990 322.400,58.202 321.529,58.517 318.872 C 58.710 317.244,58.616 316.820,57.933 316.236 C 57.117 315.537,57.053 313.976,57.772 312.326 C 58.034 311.723,57.784 311.743,55.436 312.506 L 52.806 313.361 51.734 312.560 C 48.435 310.097,49.958 307.646,59.058 300.777 C 62.797 297.954,64.627 296.400,64.212 296.400 C 63.958 296.400,61.113 297.993,60.546 298.453 C 59.603 299.218,53.284 302.982,50.463 304.459 C 46.236 306.673,44.150 306.098,44.519 302.821 C 44.652 301.642,44.516 300.611,44.129 299.863 C 43.802 299.231,43.641 298.290,43.771 297.773 C 43.950 297.062,43.787 296.716,43.104 296.356 C 41.201 295.354,41.086 293.606,42.786 291.544 C 44.318 289.685,43.995 289.435,41.609 290.633 C 38.409 292.240,36.000 291.619,36.000 289.188 C 36.000 288.326,35.772 288.050,34.900 287.861 C 33.093 287.468,32.840 287.106,31.767 283.375 C 31.202 281.409,30.483 279.401,30.170 278.914 C 28.756 276.716,29.750 274.722,32.297 274.645 C 33.975 274.594,34.718 275.636,35.641 279.336 C 36.279 281.891,36.745 281.980,39.704 280.115 C 43.495 277.725,46.426 276.000,46.695 276.000 C 46.828 276.000,47.221 275.748,47.569 275.441 C 49.174 274.018,55.461 270.800,56.634 270.800 C 57.630 270.800,58.800 272.144,58.800 273.289 C 58.800 273.830,59.123 274.000,60.154 274.000 C 63.664 274.000,63.470 276.872,59.690 280.849 C 57.018 283.661,56.170 284.820,57.248 284.188 C 57.552 284.010,58.523 283.399,59.407 282.832 C 60.290 282.264,61.307 281.620,61.666 281.400 C 62.025 281.180,64.722 279.466,67.660 277.590 C 76.879 271.704,78.172 271.351,79.326 274.409 C 79.781 275.616,80.329 275.887,81.020 275.249 C 82.681 273.714,88.479 271.200,90.359 271.200 L 92.409 271.200 92.162 269.653 C 91.871 267.836,92.302 266.870,94.457 264.509 C 95.544 263.317,96.000 262.456,96.000 261.592 C 96.000 260.079,98.553 257.217,102.266 254.568 C 103.660 253.573,104.800 252.632,104.800 252.477 C 104.800 252.322,104.629 251.599,104.420 250.870 C 103.932 249.168,104.328 248.174,106.362 245.992 C 107.320 244.964,108.000 243.844,108.000 243.291 C 108.000 242.029,108.623 240.885,110.229 239.200 C 110.963 238.430,111.991 236.990,112.513 236.000 C 113.370 234.378,118.417 229.665,119.349 229.618 C 119.541 229.608,120.801 228.825,122.149 227.877 C 123.497 226.930,127.120 224.548,130.200 222.584 C 137.493 217.933,138.795 216.750,134.500 218.675 C 130.077 220.657,128.044 220.113,127.140 216.705 C 126.493 214.269,127.015 213.508,131.615 210.178 C 134.134 208.355,135.040 207.450,135.281 206.518 C 135.588 205.336,138.544 202.415,141.123 200.747 C 141.715 200.363,142.631 199.704,143.157 199.280 L 144.114 198.510 142.658 198.237 C 138.931 197.538,139.649 194.227,144.130 191.444 C 145.150 190.811,145.235 190.591,145.000 189.201 C 144.671 187.253,145.866 185.981,152.216 181.519 C 158.191 177.319,157.888 177.660,156.580 176.617 C 153.381 174.066,155.433 170.964,165.672 162.880 C 170.029 159.440,170.388 158.947,169.165 158.090 C 168.419 157.568,168.333 157.196,168.482 155.139 C 168.685 152.328,169.346 151.537,176.200 145.903 C 180.391 142.457,180.594 142.221,180.467 140.924 C 180.290 139.118,180.920 138.250,184.765 135.005 C 187.379 132.799,188.000 132.062,188.000 131.164 C 188.000 130.406,188.253 129.974,188.798 129.801 C 190.060 129.400,190.800 128.438,190.800 127.197 C 190.800 126.170,192.321 123.591,195.351 119.484 L 196.174 118.369 194.987 117.384 C 193.979 116.548,193.523 116.434,191.958 116.629 C 187.059 117.240,187.908 112.700,193.198 110.001 C 194.547 109.313,196.800 106.778,196.800 105.949 C 196.800 105.698,194.727 105.808,191.600 106.226 C 188.676 106.617,187.688 104.042,189.950 101.928 C 190.674 101.251,191.200 100.358,191.200 99.806 C 191.200 98.318,191.798 97.149,193.555 95.200 C 194.447 94.210,195.182 93.175,195.189 92.900 C 195.195 92.625,195.425 92.386,195.700 92.368 C 196.046 92.347,196.058 92.279,195.742 92.149 C 195.490 92.046,194.680 92.329,193.942 92.779 C 188.067 96.361,186.853 90.796,192.698 87.073 C 194.100 86.180,196.400 83.406,196.400 82.608 C 196.400 82.101,195.055 82.482,193.600 83.400 C 190.046 85.644,187.338 82.937,189.800 79.600 C 190.350 78.855,190.800 78.022,190.800 77.751 C 190.800 77.479,191.447 76.571,192.238 75.733 C 193.376 74.525,193.584 74.083,193.235 73.604 C 191.551 71.295,191.937 69.686,195.046 66.055 C 196.597 64.243,196.673 64.000,195.689 64.000 C 194.126 64.000,193.116 62.803,193.274 61.139 C 193.420 59.617,193.394 59.582,192.323 59.817 C 188.867 60.576,188.638 56.880,191.942 53.680 C 193.924 51.760,194.168 51.341,194.263 49.702 C 194.322 48.695,194.557 47.683,194.785 47.455 C 195.688 46.552,195.265 45.607,194.065 45.847 C 191.310 46.398,189.893 43.017,192.286 41.602 C 192.679 41.370,194.800 40.114,197.000 38.810 C 201.293 36.266,202.131 36.032,203.269 37.062 M208.895 51.861 C 207.900 53.098,207.813 53.437,208.400 53.800 C 209.456 54.453,208.454 57.687,206.565 59.725 C 205.389 60.993,205.508 62.054,206.789 61.719 C 208.326 61.317,209.321 62.709,209.062 64.900 C 208.939 65.945,208.975 66.800,209.143 66.800 C 211.267 66.800,211.688 70.045,209.795 71.830 C 209.023 72.559,208.033 73.990,207.595 75.011 C 206.674 77.160,206.557 78.003,207.280 77.280 C 208.027 76.533,210.577 76.691,211.338 77.531 C 212.646 78.977,212.217 79.913,208.860 82.934 C 208.167 83.558,207.600 84.309,207.600 84.603 C 207.600 84.898,206.970 85.964,206.200 86.973 C 204.046 89.795,204.235 90.133,207.115 88.600 C 209.319 87.427,209.902 87.376,211.147 88.248 C 212.263 89.029,212.049 93.756,210.815 95.582 C 207.609 100.328,207.072 101.839,208.902 100.966 C 213.561 98.745,214.349 104.008,209.767 106.749 C 206.760 108.547,206.309 109.076,206.611 110.450 C 206.885 111.699,206.296 112.884,203.494 116.719 C 201.624 119.280,201.690 119.956,203.680 118.604 C 207.626 115.922,210.040 119.390,207.000 123.373 C 205.379 125.497,205.305 125.852,206.411 126.203 C 208.437 126.847,208.693 129.329,206.933 131.274 C 206.237 132.043,206.539 132.875,207.395 132.547 C 208.199 132.238,210.000 134.171,210.000 135.342 C 210.000 136.409,208.094 139.421,206.077 141.542 C 201.979 145.850,201.778 146.798,205.428 144.600 C 209.484 142.158,211.200 142.909,211.200 147.127 C 211.200 149.777,210.323 151.090,205.469 155.708 C 203.484 157.597,203.691 157.850,206.187 156.586 C 211.208 154.044,213.841 157.667,209.318 160.893 C 207.224 162.386,202.213 168.130,202.823 168.338 C 203.045 168.414,203.486 168.261,203.802 167.999 C 205.439 166.640,208.400 167.682,208.400 169.617 C 208.400 170.757,207.244 173.193,206.700 173.197 C 205.566 173.207,206.545 174.803,207.700 174.827 C 209.642 174.866,212.566 177.118,212.723 178.695 C 212.832 179.797,212.543 180.173,210.023 182.209 C 208.470 183.464,207.200 184.654,207.200 184.854 C 207.200 185.054,206.724 185.937,206.141 186.817 C 204.948 188.620,205.118 189.193,206.609 188.395 C 209.117 187.053,210.797 190.413,208.986 193.149 C 207.756 195.009,207.970 195.758,209.627 195.394 C 210.530 195.196,210.996 195.359,211.789 196.152 C 213.428 197.792,213.121 198.687,209.851 201.796 C 207.320 204.203,206.865 204.843,206.644 206.317 C 206.501 207.262,206.168 208.383,205.902 208.807 C 205.254 209.846,205.782 210.309,208.112 210.744 C 211.779 211.429,212.157 214.946,208.849 217.600 C 208.117 218.188,205.600 221.253,205.600 221.558 C 205.600 221.753,206.056 222.028,206.614 222.168 C 209.126 222.798,208.799 225.089,205.712 228.483 C 203.436 230.985,203.552 231.443,206.083 229.951 C 211.265 226.896,214.271 229.283,210.775 233.677 C 209.399 235.406,209.301 236.000,210.391 236.000 C 212.907 236.000,212.745 239.277,210.114 241.592 L 208.318 243.173 209.178 244.565 L 210.038 245.957 209.256 247.478 C 208.825 248.315,207.911 249.535,207.223 250.188 L 205.973 251.376 206.867 252.050 C 207.520 252.543,207.750 253.111,207.720 254.162 C 207.683 255.473,207.776 255.600,208.778 255.600 C 211.232 255.600,212.018 258.253,210.250 260.570 C 208.952 262.272,208.947 262.542,210.200 263.363 C 210.750 263.724,211.200 264.374,211.200 264.809 C 211.200 265.244,211.374 265.600,211.588 265.600 C 212.118 265.600,217.520 262.080,218.513 261.087 L 219.316 260.284 218.158 260.616 C 215.101 261.493,213.009 260.343,213.080 257.827 C 213.145 255.530,215.888 252.337,221.100 248.491 C 223.921 246.409,223.988 246.251,222.600 244.965 C 221.593 244.032,221.250 242.143,221.947 241.380 C 222.138 241.171,222.615 240.141,223.005 239.091 C 223.396 238.040,224.320 236.651,225.058 236.003 C 226.701 234.560,226.701 234.575,225.100 233.754 C 222.464 232.404,222.438 230.371,225.015 227.089 C 226.730 224.905,226.796 224.729,226.215 223.900 C 224.736 221.789,226.338 218.079,230.442 214.103 C 233.464 211.176,233.804 210.400,232.062 210.400 C 230.566 210.400,229.600 209.274,229.600 207.530 C 229.600 206.632,229.311 205.863,228.800 205.400 C 227.278 204.022,228.620 200.038,230.622 199.991 C 230.830 199.986,231.425 199.655,231.945 199.255 L 232.890 198.529 231.908 197.757 C 228.646 195.190,229.486 193.239,235.909 188.465 L 238.419 186.600 237.066 186.200 C 234.191 185.350,233.452 183.560,234.775 180.654 C 235.760 178.493,235.778 178.246,235.000 177.600 C 234.322 177.037,234.194 175.375,234.800 175.000 C 235.346 174.663,235.307 172.267,234.746 171.706 C 234.408 171.368,234.458 170.837,234.946 169.618 C 235.306 168.719,235.600 167.897,235.600 167.792 C 235.600 167.686,234.728 167.600,233.662 167.600 C 230.757 167.600,229.406 165.467,230.987 163.376 C 231.310 162.949,231.580 162.034,231.587 161.342 C 231.602 159.888,232.805 158.488,235.806 156.435 C 237.868 155.024,237.732 154.397,235.532 155.164 C 231.726 156.490,229.525 154.277,230.891 150.499 C 231.334 149.273,231.300 149.076,230.538 148.470 C 228.944 147.205,228.661 146.119,229.550 144.681 C 230.282 143.496,231.019 142.861,234.725 140.222 C 236.285 139.111,235.768 138.486,234.032 139.384 C 231.391 140.749,228.800 139.751,228.800 137.369 C 228.800 136.400,232.021 133.181,234.800 131.372 C 238.720 128.822,238.513 128.259,234.392 130.258 C 228.403 133.163,224.028 131.209,226.884 126.905 C 227.855 125.442,227.856 125.422,227.162 123.617 C 225.428 119.105,225.373 118.539,226.517 116.931 C 227.564 115.460,227.601 114.800,226.638 114.800 C 223.079 114.800,224.855 109.961,229.594 106.747 C 232.416 104.833,232.257 103.996,229.378 105.612 C 225.893 107.570,220.041 105.459,219.986 102.224 C 219.978 101.771,219.714 100.950,219.400 100.400 C 218.579 98.963,218.671 97.471,219.660 96.215 C 220.503 95.143,220.259 94.427,219.044 94.406 C 215.830 94.351,217.439 88.051,221.590 84.441 C 224.269 82.111,224.561 81.508,222.842 81.852 C 221.425 82.135,220.000 80.906,220.000 79.400 C 220.000 78.240,219.008 78.056,217.776 78.987 C 215.969 80.354,213.663 79.533,212.870 77.240 C 212.171 75.218,212.283 74.544,213.551 73.124 L 214.702 71.836 213.883 70.727 C 213.189 69.789,213.135 69.460,213.532 68.590 C 214.209 67.104,214.120 66.800,213.009 66.800 C 210.218 66.800,210.409 61.449,213.381 56.379 C 215.104 53.438,215.101 53.600,213.439 53.600 C 212.359 53.600,211.841 53.305,210.934 52.174 L 209.790 50.749 208.895 51.861 M193.206 146.795 C 192.502 147.452,190.728 148.935,189.263 150.090 C 187.799 151.245,186.398 152.381,186.152 152.614 C 185.905 152.848,184.602 153.930,183.256 155.020 C 181.910 156.109,181.007 157.067,181.250 157.149 C 181.494 157.231,181.807 157.140,181.946 156.948 C 182.086 156.756,182.740 156.338,183.400 156.020 C 184.060 155.701,185.140 155.059,185.800 154.593 C 186.460 154.127,188.043 153.154,189.319 152.432 C 191.447 151.228,195.600 146.961,195.600 145.979 C 195.600 145.233,194.463 145.620,193.206 146.795 M317.807 147.589 C 317.674 147.803,316.944 148.274,316.183 148.635 C 315.422 148.996,314.800 149.451,314.800 149.646 C 314.800 149.841,314.440 150.000,314.000 150.000 C 313.560 150.000,313.200 150.168,313.200 150.373 C 313.200 150.578,312.885 150.847,312.500 150.971 C 312.115 151.095,311.170 151.750,310.400 152.427 C 309.630 153.104,308.640 153.814,308.200 154.004 C 307.437 154.333,307.441 154.350,308.300 154.375 C 308.795 154.389,309.200 154.220,309.200 154.000 C 309.200 153.780,309.470 153.600,309.800 153.600 C 310.130 153.600,310.400 153.420,310.400 153.200 C 310.400 152.980,310.760 152.800,311.200 152.800 C 311.640 152.800,312.000 152.659,312.000 152.486 C 312.000 152.314,312.585 151.832,313.300 151.416 C 314.015 151.001,314.690 150.549,314.800 150.413 C 314.910 150.277,315.855 149.633,316.899 148.983 C 318.696 147.864,319.264 147.200,318.424 147.200 C 318.217 147.200,317.939 147.375,317.807 147.589 M280.733 155.100 C 280.660 155.265,279.970 155.711,279.200 156.092 C 275.086 158.126,257.224 168.987,250.000 173.847 C 243.790 178.025,243.395 178.328,243.727 178.660 C 244.049 178.982,246.028 178.001,249.697 175.700 C 251.188 174.765,252.487 174.000,252.583 174.000 C 253.176 174.000,282.000 155.356,282.000 154.973 C 282.000 154.673,280.873 154.786,280.733 155.100 M305.700 155.344 C 304.947 155.717,304.455 156.400,304.939 156.400 C 305.238 156.400,307.600 155.131,307.600 154.971 C 307.600 154.686,306.653 154.872,305.700 155.344 M191.821 158.215 C 190.081 160.092,192.149 161.942,194.191 160.336 C 195.238 159.512,195.548 158.400,194.731 158.400 C 194.474 158.400,193.943 158.111,193.552 157.757 C 192.893 157.160,192.768 157.194,191.821 158.215 M191.244 171.804 C 190.278 172.572,189.333 173.200,189.144 173.200 C 188.955 173.200,188.800 173.560,188.800 174.000 C 188.800 175.466,190.490 174.969,192.115 173.024 C 194.506 170.164,194.072 169.556,191.244 171.804 M325.200 179.800 C 324.430 180.325,323.575 180.764,323.300 180.777 C 323.025 180.790,322.800 180.936,322.800 181.102 C 322.800 181.269,322.215 181.658,321.500 181.968 C 320.785 182.278,319.252 183.132,318.092 183.866 C 316.933 184.600,315.930 185.200,315.864 185.200 C 315.798 185.200,313.506 186.486,310.772 188.059 C 308.037 189.631,304.810 191.453,303.600 192.109 C 302.390 192.764,300.590 193.791,299.600 194.392 C 297.769 195.501,293.021 198.210,289.400 200.210 C 288.300 200.817,286.922 201.649,286.338 202.057 C 285.754 202.466,285.176 202.800,285.054 202.800 C 284.931 202.800,282.632 204.060,279.944 205.600 C 277.256 207.140,275.002 208.400,274.936 208.400 C 274.870 208.400,273.831 209.030,272.627 209.800 C 271.423 210.570,270.250 211.200,270.019 211.200 C 269.789 211.200,269.600 211.380,269.600 211.600 C 269.600 211.820,269.430 212.000,269.222 212.000 C 269.015 212.000,267.260 212.986,265.322 214.190 C 263.385 215.395,261.212 216.677,260.494 217.039 C 258.864 217.860,258.500 218.400,259.576 218.400 C 260.029 218.400,260.400 218.220,260.400 218.000 C 260.400 217.780,260.724 217.600,261.120 217.600 C 261.516 217.600,262.011 217.442,262.220 217.249 C 262.429 217.057,263.410 216.452,264.400 215.906 C 265.390 215.360,266.869 214.534,267.688 214.070 C 268.506 213.607,270.396 212.564,271.888 211.754 C 275.122 209.996,277.301 208.795,279.200 207.722 C 280.944 206.736,284.149 204.980,287.800 203.009 C 296.561 198.279,304.782 193.632,309.047 191.000 C 313.948 187.975,325.893 180.158,326.551 179.546 C 327.665 178.507,326.881 178.655,325.200 179.800 M252.877 183.185 C 252.149 183.592,251.730 184.033,251.945 184.166 C 252.160 184.299,252.607 184.136,252.939 183.804 C 253.271 183.472,253.736 183.200,253.971 183.200 C 254.207 183.200,254.400 183.020,254.400 182.800 C 254.400 182.310,254.480 182.289,252.877 183.185 M186.400 190.600 C 185.498 191.560,185.493 191.600,186.268 191.600 C 187.019 191.600,188.400 190.479,188.400 189.869 C 188.400 189.257,187.276 189.668,186.400 190.600 M346.643 191.427 C 341.673 193.248,324.308 202.785,312.600 210.122 C 306.369 214.027,298.413 219.064,295.304 221.071 C 293.491 222.242,291.931 223.200,291.838 223.200 C 291.744 223.200,290.242 224.145,288.498 225.300 C 286.755 226.455,282.410 229.290,278.843 231.600 C 275.276 233.910,270.654 236.925,268.572 238.300 C 266.490 239.675,264.692 240.800,264.577 240.800 C 264.380 240.800,263.854 241.197,262.679 242.236 C 262.408 242.475,261.919 242.776,261.593 242.904 C 261.239 243.043,261.198 243.150,261.490 243.168 C 262.005 243.202,266.932 240.688,271.000 238.316 C 273.404 236.915,275.475 235.782,282.200 232.195 C 284.180 231.139,286.250 229.980,286.800 229.621 C 287.350 229.262,288.790 228.448,290.000 227.812 C 291.210 227.177,292.740 226.341,293.400 225.955 C 294.060 225.569,295.680 224.676,297.000 223.971 C 298.975 222.915,307.414 218.200,313.576 214.708 C 314.755 214.040,321.400 209.919,326.000 207.004 C 330.014 204.459,333.267 202.513,335.600 201.260 C 339.749 199.031,344.848 195.498,347.625 192.929 C 349.971 190.758,349.681 190.314,346.643 191.427 M192.600 195.600 C 192.440 195.858,192.490 196.250,192.710 196.470 C 192.976 196.736,193.206 196.713,193.400 196.400 C 193.560 196.142,193.510 195.750,193.290 195.530 C 193.024 195.264,192.794 195.287,192.600 195.600 M193.900 202.231 C 193.735 202.397,193.600 202.848,193.600 203.233 C 193.600 203.618,193.375 204.024,193.100 204.135 C 192.786 204.262,192.768 204.349,193.051 204.368 C 193.714 204.415,194.486 203.339,194.333 202.583 C 194.260 202.223,194.065 202.064,193.900 202.231 M293.800 209.253 C 292.916 209.800,292.792 209.996,293.329 209.998 C 294.013 210.000,295.468 208.910,295.148 208.636 C 295.066 208.566,294.460 208.844,293.800 209.253 M291.200 210.800 C 291.200 211.020,291.037 211.200,290.838 211.200 C 290.640 211.200,289.335 211.852,287.938 212.649 C 286.542 213.446,284.590 214.551,283.600 215.103 C 282.610 215.655,281.620 216.244,281.400 216.412 C 281.180 216.579,280.100 217.214,279.000 217.822 C 277.900 218.430,276.280 219.388,275.400 219.950 C 274.520 220.513,273.157 221.339,272.371 221.787 C 271.585 222.234,269.284 223.590,267.257 224.800 C 265.229 226.010,263.259 227.180,262.877 227.400 C 256.579 231.033,252.278 233.668,240.863 240.889 C 239.028 242.050,237.226 243.180,236.859 243.400 C 235.707 244.091,229.050 248.577,228.410 249.092 C 228.075 249.363,227.440 249.853,227.000 250.180 C 225.690 251.154,227.026 250.880,229.086 249.752 C 231.943 248.188,236.651 245.389,241.283 242.500 C 242.782 241.565,244.083 240.800,244.174 240.800 C 244.354 240.800,251.762 236.283,255.000 234.199 C 256.100 233.491,259.160 231.604,261.800 230.006 C 264.440 228.409,267.860 226.269,269.400 225.251 C 270.940 224.233,272.380 223.328,272.600 223.241 C 273.076 223.051,278.937 219.413,280.484 218.347 C 281.080 217.936,281.693 217.600,281.846 217.600 C 281.999 217.600,282.681 217.190,283.362 216.689 C 284.043 216.189,285.770 215.074,287.200 214.214 C 288.630 213.353,289.860 212.503,289.933 212.324 C 290.007 212.146,290.322 212.000,290.633 212.000 C 290.945 212.000,291.200 211.820,291.200 211.600 C 291.200 211.380,291.459 211.200,291.776 211.200 C 292.093 211.200,292.464 211.020,292.600 210.800 C 292.736 210.580,292.477 210.400,292.024 210.400 C 291.571 210.400,291.200 210.580,291.200 210.800 M192.400 217.230 C 191.630 217.905,190.640 218.614,190.200 218.804 C 189.416 219.142,189.417 219.150,190.240 219.175 C 192.321 219.237,194.400 217.864,194.400 216.426 C 194.400 215.724,193.876 215.935,192.400 217.230 M256.624 219.413 C 256.037 219.856,255.994 220.000,256.447 220.000 C 256.777 220.000,257.396 219.736,257.824 219.413 C 258.410 218.969,258.453 218.825,258.000 218.825 C 257.670 218.825,257.051 219.090,256.624 219.413 M310.400 229.112 C 310.400 229.284,309.905 229.635,309.300 229.892 C 308.695 230.149,306.760 231.159,305.000 232.135 C 303.240 233.111,300.270 234.675,298.400 235.610 C 296.530 236.545,293.866 238.096,292.481 239.055 C 291.095 240.015,289.874 240.800,289.767 240.800 C 289.660 240.800,287.772 242.060,285.572 243.600 C 283.372 245.140,281.399 246.400,281.186 246.400 C 280.974 246.400,280.800 246.552,280.800 246.739 C 280.800 246.925,280.395 247.273,279.900 247.512 L 279.000 247.946 279.900 247.973 C 280.395 247.988,280.800 247.864,280.800 247.698 C 280.800 247.531,281.385 247.143,282.100 246.835 C 282.815 246.526,284.621 245.492,286.112 244.537 C 287.604 243.582,288.906 242.800,289.005 242.800 C 289.104 242.800,290.169 242.170,291.373 241.400 C 292.577 240.630,293.633 240.000,293.721 240.000 C 293.808 240.000,296.729 238.290,300.210 236.200 C 303.692 234.110,306.604 232.400,306.680 232.400 C 306.937 232.400,312.000 229.130,312.000 228.964 C 312.000 228.874,311.640 228.800,311.200 228.800 C 310.760 228.800,310.400 228.941,310.400 229.112 M190.438 235.158 C 189.334 236.006,189.521 237.200,190.758 237.200 C 191.500 237.200,193.200 235.491,193.200 234.746 C 193.200 234.132,191.429 234.396,190.438 235.158 M192.800 263.533 C 192.800 263.790,192.530 264.000,192.200 264.000 C 191.870 264.000,191.600 264.180,191.600 264.400 C 191.600 265.058,192.694 264.852,192.967 264.143 C 193.105 263.781,193.125 263.391,193.009 263.276 C 192.894 263.161,192.800 263.277,192.800 263.533 M161.000 264.438 C 160.479 264.956,155.747 268.023,152.240 270.116 L 149.480 271.763 151.040 272.452 C 153.765 273.655,156.111 272.946,156.543 270.787 C 156.696 270.019,157.725 268.670,159.392 267.052 C 160.826 265.659,162.000 264.403,162.000 264.260 C 162.000 263.882,161.463 263.978,161.000 264.438 M180.400 268.806 C 175.950 271.763,175.200 272.475,175.200 273.746 C 175.200 274.182,174.118 275.858,172.795 277.470 C 169.789 281.132,170.238 281.185,175.600 277.800 C 177.744 276.447,179.743 275.315,182.100 274.121 C 183.986 273.165,184.369 272.675,183.600 272.200 C 183.008 271.834,183.119 270.363,183.841 269.000 C 185.801 265.302,185.682 265.295,180.400 268.806 M102.500 268.870 C 100.648 269.911,99.700 271.200,100.786 271.200 C 101.444 271.200,102.081 272.825,101.824 273.847 C 101.451 275.335,99.062 277.749,94.834 280.911 C 88.914 285.339,87.922 286.798,93.244 283.250 C 94.870 282.165,98.090 280.062,100.400 278.576 C 102.710 277.090,104.667 275.820,104.750 275.754 C 104.832 275.688,104.427 275.072,103.850 274.386 C 102.381 272.640,102.672 270.926,104.759 269.037 C 106.693 267.287,105.475 267.197,102.500 268.870 M222.242 267.932 C 222.129 268.115,220.588 269.119,218.818 270.165 C 216.233 271.691,215.600 272.252,215.600 273.014 C 215.600 274.320,214.840 275.990,213.650 277.300 C 211.847 279.284,214.188 278.359,219.900 274.829 C 221.814 273.646,222.000 273.401,222.003 272.066 C 222.004 271.260,222.363 270.060,222.800 269.400 C 223.237 268.740,223.596 268.065,223.597 267.900 C 223.601 267.492,222.498 267.518,222.242 267.932 M246.400 268.638 C 244.131 269.935,244.102 269.967,244.812 270.416 C 245.711 270.985,245.934 270.903,247.420 269.460 C 249.617 267.326,249.235 267.018,246.400 268.638 M192.599 269.339 C 186.809 272.668,186.459 272.996,187.387 274.224 C 188.195 275.292,188.142 276.113,187.159 277.781 C 186.376 279.106,186.369 279.187,187.059 278.933 C 189.273 278.117,190.800 276.031,190.800 273.823 C 190.800 273.054,193.047 269.929,194.191 269.106 C 194.855 268.629,193.485 268.829,192.599 269.339 M259.900 269.688 C 258.325 270.601,257.976 271.200,259.020 271.200 C 259.361 271.200,260.136 271.457,260.744 271.771 C 262.209 272.528,262.772 272.097,262.678 270.292 C 262.586 268.535,262.079 268.425,259.900 269.688 M279.600 271.053 C 278.038 271.851,276.396 272.385,275.487 272.391 C 273.710 272.402,273.236 273.146,274.164 274.470 C 276.043 277.152,274.198 279.273,264.975 285.036 C 259.003 288.767,259.284 288.593,256.810 290.082 C 255.606 290.807,254.037 291.760,253.322 292.200 C 252.117 292.942,243.160 298.235,235.200 302.908 C 233.330 304.005,230.990 305.356,230.000 305.909 C 229.010 306.462,227.750 307.225,227.200 307.605 C 226.650 307.985,225.390 308.703,224.400 309.201 C 223.410 309.700,222.510 310.238,222.400 310.398 C 222.290 310.558,221.585 311.004,220.833 311.389 C 220.081 311.774,217.410 313.330,214.898 314.845 C 212.385 316.360,210.253 317.600,210.160 317.600 C 210.067 317.600,208.508 318.530,206.696 319.666 C 204.883 320.802,202.581 322.197,201.579 322.766 C 194.242 326.934,172.895 340.735,168.000 344.476 C 163.553 347.875,162.825 348.517,163.034 348.855 C 163.176 349.085,163.457 349.095,163.736 348.879 C 163.991 348.681,165.820 347.657,167.800 346.603 C 169.780 345.549,172.840 343.830,174.600 342.784 C 182.769 337.927,192.947 331.778,196.400 329.615 C 198.490 328.305,201.100 326.686,202.200 326.017 C 203.300 325.347,204.543 324.575,204.962 324.300 C 206.682 323.172,220.260 314.649,221.000 314.233 C 221.440 313.986,223.613 312.618,225.829 311.192 C 228.045 309.766,230.148 308.420,230.503 308.200 C 230.857 307.980,233.863 306.045,237.182 303.900 C 240.501 301.755,243.319 300.000,243.444 300.000 C 243.570 300.000,244.691 299.310,245.936 298.466 C 248.366 296.819,257.423 291.127,259.400 290.005 C 260.060 289.630,263.082 287.766,266.115 285.862 C 269.148 283.958,271.710 282.400,271.807 282.400 C 271.905 282.400,272.933 281.799,274.092 281.065 C 279.414 277.693,287.068 274.022,289.334 273.756 C 291.356 273.519,291.600 273.391,291.600 272.569 C 291.600 272.062,291.780 271.536,292.000 271.400 C 292.220 271.264,292.400 270.983,292.400 270.776 C 292.400 270.277,290.914 270.291,290.604 270.794 C 289.566 272.473,284.856 272.320,284.064 270.580 C 283.496 269.335,282.825 269.406,279.600 271.053 M127.076 271.442 C 125.601 272.241,125.710 273.743,127.256 273.922 C 128.223 274.034,128.325 273.908,128.466 272.422 C 128.640 270.603,128.633 270.597,127.076 271.442 M165.000 272.000 C 165.136 272.220,165.496 272.400,165.800 272.400 C 166.104 272.400,166.464 272.220,166.600 272.000 C 166.741 271.772,166.396 271.600,165.800 271.600 C 165.204 271.600,164.859 271.772,165.000 272.000 M118.400 312.015 C 117.850 312.453,116.770 313.116,116.000 313.487 C 114.801 314.065,111.256 316.174,108.578 317.903 C 108.150 318.179,107.530 318.524,107.200 318.670 C 106.870 318.816,105.794 319.489,104.809 320.167 C 103.823 320.845,102.743 321.522,102.409 321.672 C 101.964 321.871,102.042 321.951,102.700 321.972 C 103.195 321.987,103.600 321.864,103.600 321.698 C 103.600 321.531,104.185 321.141,104.900 320.829 C 105.615 320.518,106.757 319.844,107.438 319.332 C 108.119 318.819,108.792 318.400,108.934 318.400 C 109.076 318.400,110.455 317.590,112.000 316.600 C 113.545 315.610,114.901 314.800,115.014 314.800 C 115.316 314.800,120.400 311.557,120.400 311.364 C 120.400 310.940,119.300 311.297,118.400 312.015 M127.600 322.743 C 122.877 325.141,110.908 332.903,111.584 333.128 C 111.864 333.221,112.207 333.140,112.346 332.948 C 112.486 332.756,113.140 332.331,113.800 332.004 C 115.390 331.215,120.122 328.411,124.724 325.531 C 126.771 324.249,128.543 323.200,128.660 323.200 C 128.778 323.200,129.331 322.840,129.891 322.400 C 131.343 321.258,130.182 321.431,127.600 322.743 " stroke="none" fill="#fbcc04" fill-rule="evenodd"></path></g></svg>